<svg xmlns="http://www.w3.org/2000/svg" viewBox="0 0 1150 745" font-family="'Segoe UI', 'Helvetica Neue', Arial, sans-serif">
<defs>
<style>
 .stek circle{fill:#ffffff;stroke:#1d4e79;stroke-width:1.1;}
 .stek text{fill:#123c5e;font-weight:600;text-anchor:middle;}
 .lbl{fill:#5b5442;font-size:12px;}
 .contour{fill:none;stroke:#ffffff;stroke-opacity:.75;stroke-width:1.2;stroke-dasharray:5 4;}
 .dlabel{fill:#ffffff;font-size:11px;font-weight:600;opacity:.95;text-anchor:middle;}
 .road{stroke:#c9c2ad;stroke-width:10;fill:none;stroke-linecap:round;}
 .roadline{stroke:#ffffff;stroke-width:1.2;fill:none;stroke-dasharray:8 7;opacity:.9;}
</style>
</defs>
<rect width="1150" height="745" fill="#f2eee1"/>
<g>
<path class="road" d="M 8 470 L 128 24"/>
<path class="roadline" d="M 8 470 L 128 24"/>
<path class="road" d="M 786 118 L 1142 488"/>
<path class="roadline" d="M 786 118 L 1142 488"/>
<path d="M 30 500 L 1120 492" stroke="#d8d2c0" stroke-width="4" fill="none"/>
<path class="road" d="M 20 540 L 1130 532"/>
<path class="roadline" d="M 20 540 L 1130 532"/>
</g>
<text class="lbl" transform="translate(52,320) rotate(-75)" font-style="italic">Roeleveenseweg</text>
<text class="lbl" transform="translate(1010,300) rotate(48)" font-style="italic">Roeleveenseweg</text>
<text class="lbl" x="565" y="487" font-style="italic" font-size="11">fietspad</text>
<text class="lbl" x="560" y="560" font-style="italic">Rijksweg 12 (A12)</text>
<text class="lbl" x="40" y="561" font-size="11">&#8592; Den Haag</text>
<text class="lbl" x="1035" y="561" font-size="11">Utrecht &#8594;</text>
<path d="M 61.6 225.7 C 61.7 222.1 65.0 221.0 67.0 217.6 C 69.1 214.1 72.9 207.3 75.1 202.7 C 77.4 198.1 80.2 191.4 81.9 187.0 C 83.6 182.6 85.2 177.7 86.5 173.5 C 87.8 169.3 89.5 165.3 90.5 158.9 C 91.6 152.6 92.1 136.7 93.2 131.1 C 94.3 125.5 96.2 124.5 97.8 121.6 C 99.5 118.7 102.8 114.9 104.3 111.6 C 105.9 108.4 106.8 103.0 108.1 100.0 C 109.4 97.0 111.6 93.9 113.0 91.9 C 114.4 89.9 115.5 89.7 117.6 86.5 C 119.7 83.2 124.1 75.0 127.0 70.3 C 130.0 65.5 132.2 59.2 137.3 54.9 C 142.4 50.5 153.8 43.7 160.8 41.4 C 167.9 39.0 177.7 38.6 184.3 39.2 C 190.9 39.8 199.7 40.2 204.9 45.1 C 210.1 50.1 211.5 62.9 218.9 72.2 C 226.3 81.4 243.1 96.5 254.1 106.8 C 265.0 117.0 280.1 131.7 291.9 140.5 C 303.7 149.4 321.9 157.7 333.0 165.7 C 344.0 173.7 354.3 183.6 365.4 193.8 C 376.5 203.9 396.3 223.1 407.0 233.2 C 417.7 243.4 428.8 255.1 436.8 261.4 C 444.7 267.6 453.4 267.6 460.0 274.9 C 466.6 282.1 474.7 300.2 481.1 309.5 C 487.5 318.7 497.2 329.3 502.7 336.5 C 508.2 343.7 512.9 353.6 517.6 357.6 C 522.2 361.5 527.9 363.0 533.8 363.0 C 539.7 363.0 548.2 362.8 556.8 357.6 C 565.3 352.4 580.9 338.2 590.5 328.4 C 600.2 318.5 611.6 302.2 621.1 291.9 C 630.5 281.6 644.3 269.2 653.5 259.5 C 662.7 249.7 673.9 235.5 682.4 227.0 C 690.9 218.5 702.3 209.5 710.3 202.7 C 718.3 195.9 729.4 186.8 735.7 181.9 C 741.9 177.0 746.3 172.3 751.9 170.3 C 757.5 168.2 766.6 168.1 773.0 168.4 C 779.3 168.7 787.1 169.0 794.1 172.2 C 801.0 175.3 814.3 184.9 819.5 189.5 C 824.6 194.0 826.2 198.2 828.6 202.7 C 831.1 207.2 831.0 214.6 835.7 219.7 C 840.4 224.9 853.7 232.0 860.0 237.0 C 866.3 242.1 873.1 248.9 877.8 253.2 C 882.5 257.6 887.7 264.5 891.4 266.2 C 895.0 268.0 899.3 263.6 902.2 264.9 C 905.0 266.2 908.5 271.5 910.3 274.9 C 912.1 278.2 911.1 282.8 914.1 287.3 C 917.1 291.8 925.4 299.2 930.3 304.6 C 935.1 310.0 941.2 318.0 946.5 323.5 C 951.8 329.0 960.1 336.1 965.4 341.4 C 970.7 346.6 976.5 353.6 981.6 358.6 C 986.7 363.7 995.4 368.4 999.5 374.9 C 1003.5 381.4 1004.0 394.2 1008.6 401.9 C 1013.3 409.6 1026.4 420.9 1030.3 426.2 C 1034.2 431.5 1035.0 434.8 1034.6 437.0 C 1034.2 439.3 1028.0 439.9 1027.6 441.4 C 1027.2 442.8 1036.1 445.8 1031.9 446.8 C 1027.6 447.7 1029.9 447.6 999.2 447.8 C 968.5 448.1 881.2 448.2 827.0 448.6 C 772.8 449.1 688.1 450.3 637.8 450.5 C 587.6 450.8 516.6 449.8 491.9 450.5 C 467.2 451.3 479.5 454.5 473.0 455.4 C 466.5 456.3 456.6 456.3 448.6 456.8 C 440.7 457.2 444.6 458.4 420.3 458.6 C 395.9 458.9 330.3 458.3 286.5 458.1 C 242.7 457.9 154.5 457.9 128.4 457.3 C 102.2 456.7 116.6 455.8 112.2 454.1 C 107.7 452.4 102.7 449.1 98.6 445.9 C 94.6 442.8 89.0 437.3 85.1 433.2 C 81.3 429.2 76.3 422.8 73.0 418.9 C 69.6 415.0 65.5 411.2 62.7 407.3 C 59.9 403.4 56.2 396.9 54.1 392.7 C 51.9 388.5 49.2 383.6 48.1 379.2 C 47.0 374.7 46.3 368.2 46.5 363.0 C 46.6 357.8 47.6 349.7 49.2 344.6 C 50.7 339.5 54.4 334.2 56.8 328.9 C 59.1 323.6 62.8 314.8 64.9 309.5 C 66.9 304.1 69.0 296.4 70.3 293.2 C 71.6 290.1 72.6 290.9 73.5 288.4 C 74.4 285.9 76.2 279.8 76.2 276.5 C 76.2 273.2 74.4 269.8 73.5 266.2 C 72.6 262.6 71.3 256.4 70.3 252.7 C 69.2 249.0 67.8 245.4 66.5 241.4 C 65.2 237.3 61.5 229.2 61.6 225.7 Z" fill="#1d4e79" opacity="0.18" transform="translate(2.5,3.5)"/>
<path d="M 61.6 225.7 C 61.7 222.1 65.0 221.0 67.0 217.6 C 69.1 214.1 72.9 207.3 75.1 202.7 C 77.4 198.1 80.2 191.4 81.9 187.0 C 83.6 182.6 85.2 177.7 86.5 173.5 C 87.8 169.3 89.5 165.3 90.5 158.9 C 91.6 152.6 92.1 136.7 93.2 131.1 C 94.3 125.5 96.2 124.5 97.8 121.6 C 99.5 118.7 102.8 114.9 104.3 111.6 C 105.9 108.4 106.8 103.0 108.1 100.0 C 109.4 97.0 111.6 93.9 113.0 91.9 C 114.4 89.9 115.5 89.7 117.6 86.5 C 119.7 83.2 124.1 75.0 127.0 70.3 C 130.0 65.5 132.2 59.2 137.3 54.9 C 142.4 50.5 153.8 43.7 160.8 41.4 C 167.9 39.0 177.7 38.6 184.3 39.2 C 190.9 39.8 199.7 40.2 204.9 45.1 C 210.1 50.1 211.5 62.9 218.9 72.2 C 226.3 81.4 243.1 96.5 254.1 106.8 C 265.0 117.0 280.1 131.7 291.9 140.5 C 303.7 149.4 321.9 157.7 333.0 165.7 C 344.0 173.7 354.3 183.6 365.4 193.8 C 376.5 203.9 396.3 223.1 407.0 233.2 C 417.7 243.4 428.8 255.1 436.8 261.4 C 444.7 267.6 453.4 267.6 460.0 274.9 C 466.6 282.1 474.7 300.2 481.1 309.5 C 487.5 318.7 497.2 329.3 502.7 336.5 C 508.2 343.7 512.9 353.6 517.6 357.6 C 522.2 361.5 527.9 363.0 533.8 363.0 C 539.7 363.0 548.2 362.8 556.8 357.6 C 565.3 352.4 580.9 338.2 590.5 328.4 C 600.2 318.5 611.6 302.2 621.1 291.9 C 630.5 281.6 644.3 269.2 653.5 259.5 C 662.7 249.7 673.9 235.5 682.4 227.0 C 690.9 218.5 702.3 209.5 710.3 202.7 C 718.3 195.9 729.4 186.8 735.7 181.9 C 741.9 177.0 746.3 172.3 751.9 170.3 C 757.5 168.2 766.6 168.1 773.0 168.4 C 779.3 168.7 787.1 169.0 794.1 172.2 C 801.0 175.3 814.3 184.9 819.5 189.5 C 824.6 194.0 826.2 198.2 828.6 202.7 C 831.1 207.2 831.0 214.6 835.7 219.7 C 840.4 224.9 853.7 232.0 860.0 237.0 C 866.3 242.1 873.1 248.9 877.8 253.2 C 882.5 257.6 887.7 264.5 891.4 266.2 C 895.0 268.0 899.3 263.6 902.2 264.9 C 905.0 266.2 908.5 271.5 910.3 274.9 C 912.1 278.2 911.1 282.8 914.1 287.3 C 917.1 291.8 925.4 299.2 930.3 304.6 C 935.1 310.0 941.2 318.0 946.5 323.5 C 951.8 329.0 960.1 336.1 965.4 341.4 C 970.7 346.6 976.5 353.6 981.6 358.6 C 986.7 363.7 995.4 368.4 999.5 374.9 C 1003.5 381.4 1004.0 394.2 1008.6 401.9 C 1013.3 409.6 1026.4 420.9 1030.3 426.2 C 1034.2 431.5 1035.0 434.8 1034.6 437.0 C 1034.2 439.3 1028.0 439.9 1027.6 441.4 C 1027.2 442.8 1036.1 445.8 1031.9 446.8 C 1027.6 447.7 1029.9 447.6 999.2 447.8 C 968.5 448.1 881.2 448.2 827.0 448.6 C 772.8 449.1 688.1 450.3 637.8 450.5 C 587.6 450.8 516.6 449.8 491.9 450.5 C 467.2 451.3 479.5 454.5 473.0 455.4 C 466.5 456.3 456.6 456.3 448.6 456.8 C 440.7 457.2 444.6 458.4 420.3 458.6 C 395.9 458.9 330.3 458.3 286.5 458.1 C 242.7 457.9 154.5 457.9 128.4 457.3 C 102.2 456.7 116.6 455.8 112.2 454.1 C 107.7 452.4 102.7 449.1 98.6 445.9 C 94.6 442.8 89.0 437.3 85.1 433.2 C 81.3 429.2 76.3 422.8 73.0 418.9 C 69.6 415.0 65.5 411.2 62.7 407.3 C 59.9 403.4 56.2 396.9 54.1 392.7 C 51.9 388.5 49.2 383.6 48.1 379.2 C 47.0 374.7 46.3 368.2 46.5 363.0 C 46.6 357.8 47.6 349.7 49.2 344.6 C 50.7 339.5 54.4 334.2 56.8 328.9 C 59.1 323.6 62.8 314.8 64.9 309.5 C 66.9 304.1 69.0 296.4 70.3 293.2 C 71.6 290.1 72.6 290.9 73.5 288.4 C 74.4 285.9 76.2 279.8 76.2 276.5 C 76.2 273.2 74.4 269.8 73.5 266.2 C 72.6 262.6 71.3 256.4 70.3 252.7 C 69.2 249.0 67.8 245.4 66.5 241.4 C 65.2 237.3 61.5 229.2 61.6 225.7 Z" fill="#b9dcf2"/>
<clipPath id="lake"><path d="M 61.6 225.7 C 61.7 222.1 65.0 221.0 67.0 217.6 C 69.1 214.1 72.9 207.3 75.1 202.7 C 77.4 198.1 80.2 191.4 81.9 187.0 C 83.6 182.6 85.2 177.7 86.5 173.5 C 87.8 169.3 89.5 165.3 90.5 158.9 C 91.6 152.6 92.1 136.7 93.2 131.1 C 94.3 125.5 96.2 124.5 97.8 121.6 C 99.5 118.7 102.8 114.9 104.3 111.6 C 105.9 108.4 106.8 103.0 108.1 100.0 C 109.4 97.0 111.6 93.9 113.0 91.9 C 114.4 89.9 115.5 89.7 117.6 86.5 C 119.7 83.2 124.1 75.0 127.0 70.3 C 130.0 65.5 132.2 59.2 137.3 54.9 C 142.4 50.5 153.8 43.7 160.8 41.4 C 167.9 39.0 177.7 38.6 184.3 39.2 C 190.9 39.8 199.7 40.2 204.9 45.1 C 210.1 50.1 211.5 62.9 218.9 72.2 C 226.3 81.4 243.1 96.5 254.1 106.8 C 265.0 117.0 280.1 131.7 291.9 140.5 C 303.7 149.4 321.9 157.7 333.0 165.7 C 344.0 173.7 354.3 183.6 365.4 193.8 C 376.5 203.9 396.3 223.1 407.0 233.2 C 417.7 243.4 428.8 255.1 436.8 261.4 C 444.7 267.6 453.4 267.6 460.0 274.9 C 466.6 282.1 474.7 300.2 481.1 309.5 C 487.5 318.7 497.2 329.3 502.7 336.5 C 508.2 343.7 512.9 353.6 517.6 357.6 C 522.2 361.5 527.9 363.0 533.8 363.0 C 539.7 363.0 548.2 362.8 556.8 357.6 C 565.3 352.4 580.9 338.2 590.5 328.4 C 600.2 318.5 611.6 302.2 621.1 291.9 C 630.5 281.6 644.3 269.2 653.5 259.5 C 662.7 249.7 673.9 235.5 682.4 227.0 C 690.9 218.5 702.3 209.5 710.3 202.7 C 718.3 195.9 729.4 186.8 735.7 181.9 C 741.9 177.0 746.3 172.3 751.9 170.3 C 757.5 168.2 766.6 168.1 773.0 168.4 C 779.3 168.7 787.1 169.0 794.1 172.2 C 801.0 175.3 814.3 184.9 819.5 189.5 C 824.6 194.0 826.2 198.2 828.6 202.7 C 831.1 207.2 831.0 214.6 835.7 219.7 C 840.4 224.9 853.7 232.0 860.0 237.0 C 866.3 242.1 873.1 248.9 877.8 253.2 C 882.5 257.6 887.7 264.5 891.4 266.2 C 895.0 268.0 899.3 263.6 902.2 264.9 C 905.0 266.2 908.5 271.5 910.3 274.9 C 912.1 278.2 911.1 282.8 914.1 287.3 C 917.1 291.8 925.4 299.2 930.3 304.6 C 935.1 310.0 941.2 318.0 946.5 323.5 C 951.8 329.0 960.1 336.1 965.4 341.4 C 970.7 346.6 976.5 353.6 981.6 358.6 C 986.7 363.7 995.4 368.4 999.5 374.9 C 1003.5 381.4 1004.0 394.2 1008.6 401.9 C 1013.3 409.6 1026.4 420.9 1030.3 426.2 C 1034.2 431.5 1035.0 434.8 1034.6 437.0 C 1034.2 439.3 1028.0 439.9 1027.6 441.4 C 1027.2 442.8 1036.1 445.8 1031.9 446.8 C 1027.6 447.7 1029.9 447.6 999.2 447.8 C 968.5 448.1 881.2 448.2 827.0 448.6 C 772.8 449.1 688.1 450.3 637.8 450.5 C 587.6 450.8 516.6 449.8 491.9 450.5 C 467.2 451.3 479.5 454.5 473.0 455.4 C 466.5 456.3 456.6 456.3 448.6 456.8 C 440.7 457.2 444.6 458.4 420.3 458.6 C 395.9 458.9 330.3 458.3 286.5 458.1 C 242.7 457.9 154.5 457.9 128.4 457.3 C 102.2 456.7 116.6 455.8 112.2 454.1 C 107.7 452.4 102.7 449.1 98.6 445.9 C 94.6 442.8 89.0 437.3 85.1 433.2 C 81.3 429.2 76.3 422.8 73.0 418.9 C 69.6 415.0 65.5 411.2 62.7 407.3 C 59.9 403.4 56.2 396.9 54.1 392.7 C 51.9 388.5 49.2 383.6 48.1 379.2 C 47.0 374.7 46.3 368.2 46.5 363.0 C 46.6 357.8 47.6 349.7 49.2 344.6 C 50.7 339.5 54.4 334.2 56.8 328.9 C 59.1 323.6 62.8 314.8 64.9 309.5 C 66.9 304.1 69.0 296.4 70.3 293.2 C 71.6 290.1 72.6 290.9 73.5 288.4 C 74.4 285.9 76.2 279.8 76.2 276.5 C 76.2 273.2 74.4 269.8 73.5 266.2 C 72.6 262.6 71.3 256.4 70.3 252.7 C 69.2 249.0 67.8 245.4 66.5 241.4 C 65.2 237.3 61.5 229.2 61.6 225.7 Z"/></clipPath>
<g clip-path="url(#lake)">
<path d="M 140.5 141.9 C 144.7 123.4 151.8 96.2 159.5 85.1 C 167.1 74.1 176.8 73.6 186.5 75.7 C 196.2 77.7 205.4 87.4 217.6 97.3 C 229.7 107.2 243.5 121.6 259.5 135.1 C 275.5 148.6 295.5 162.6 313.5 178.4 C 331.5 194.1 351.4 214.6 367.6 229.7 C 383.8 244.8 396.8 256.1 410.8 268.9 C 424.8 281.8 439.2 295.0 451.4 306.8 C 463.5 318.5 473.9 329.5 483.8 339.2 C 493.7 348.9 501.8 358.6 510.8 364.9 C 519.8 371.1 528.8 377.4 537.8 376.5 C 546.8 375.6 554.5 367.0 564.9 359.5 C 575.2 351.9 589.2 341.0 600.0 331.1 C 610.8 321.2 620.0 310.6 629.7 300.0 C 639.4 289.4 648.2 278.2 658.1 267.6 C 668.0 257.0 678.6 245.5 689.2 236.5 C 699.8 227.5 710.6 218.9 721.6 213.5 C 732.7 208.1 744.4 203.2 755.4 204.1 C 766.4 205.0 779.5 211.5 787.8 218.9 C 796.2 226.4 802.0 237.8 805.4 248.6 C 808.8 259.5 810.6 272.1 808.1 283.8 C 805.6 295.5 799.1 308.3 790.5 318.9 C 782.0 329.5 769.1 339.5 756.8 347.3 C 744.4 355.1 729.7 361.3 716.2 365.7 C 702.7 370.1 689.2 371.7 675.7 373.8 C 662.2 375.9 647.7 375.6 635.1 378.4 C 622.5 381.2 612.6 385.4 600.0 390.5 C 587.4 395.7 572.5 404.3 559.5 409.5 C 546.4 414.6 534.2 420.3 521.6 421.6 C 509.0 423.0 496.8 418.7 483.8 417.6 C 470.7 416.4 457.2 414.6 443.2 414.9 C 429.3 415.1 414.9 417.8 400.0 418.9 C 385.1 420.0 369.4 422.1 354.1 421.6 C 338.7 421.2 323.9 416.4 308.1 416.2 C 292.3 416.1 276.1 421.4 259.5 420.8 C 242.8 420.2 223.9 417.5 208.1 412.7 C 192.3 407.9 175.3 400.8 164.9 391.9 C 154.4 383.0 150.5 372.1 145.4 359.5 C 140.4 346.8 136.8 333.6 134.6 316.2 C 132.3 298.9 131.9 275.5 131.9 255.4 C 131.9 235.4 133.2 214.9 134.6 195.9 C 136.0 177.0 136.4 160.4 140.5 141.9 Z" fill="#7cbde4"/>
<path d="M 164.9 163.5 C 171.5 150.0 182.4 138.3 191.9 135.1 C 201.4 132.0 209.9 138.3 221.6 144.6 C 233.3 150.9 248.6 162.8 262.2 173.0 C 275.7 183.1 289.2 194.6 302.7 205.4 C 316.2 216.2 330.0 226.4 343.2 237.8 C 356.5 249.3 371.6 262.8 382.4 274.3 C 393.2 285.8 402.7 296.2 408.1 306.8 C 413.5 317.3 417.3 328.4 414.9 337.8 C 412.4 347.3 403.6 357.1 393.2 363.5 C 382.9 370.0 368.2 376.3 352.7 376.5 C 337.2 376.7 317.8 364.8 300.0 364.9 C 282.2 365.0 263.7 377.3 245.9 377.0 C 228.2 376.7 206.7 370.0 193.2 363.0 C 179.8 356.0 172.3 348.6 165.4 335.1 C 158.5 321.7 154.1 302.3 151.9 282.4 C 149.6 262.6 149.7 236.0 151.9 216.2 C 154.1 196.4 158.2 177.0 164.9 163.5 Z" fill="#3f8dc6"/>
<path d="M 679.7 256.8 C 683.4 245.3 695.3 232.1 705.4 224.3 C 715.5 216.5 729.3 210.6 740.5 210.0 C 751.8 209.4 764.5 214.5 773.0 220.8 C 781.4 227.1 789.2 237.5 791.4 247.8 C 793.5 258.2 792.2 272.7 785.9 283.0 C 779.7 293.2 766.1 304.1 754.1 309.5 C 742.0 314.8 725.3 317.6 713.5 314.9 C 701.7 312.2 688.9 302.9 683.2 293.2 C 677.6 283.6 676.0 268.2 679.7 256.8 Z" fill="#3f8dc6"/>
<path d="M 174.3 216.2 C 179.2 207.7 194.6 197.4 205.4 196.5 C 216.2 195.6 231.0 204.1 239.2 210.8 C 247.4 217.6 255.7 228.7 254.6 237.0 C 253.5 245.4 241.6 255.9 232.4 260.8 C 223.2 265.7 208.8 268.5 199.5 266.2 C 190.1 264.0 180.4 255.6 176.2 247.3 C 172.0 239.0 169.5 224.7 174.3 216.2 Z" fill="#1f639c"/>
<path d="M 720.3 250.5 C 723.9 242.5 736.0 230.3 743.8 228.9 C 751.6 227.6 762.7 235.8 767.0 242.4 C 771.4 249.1 773.3 261.4 769.7 268.9 C 766.1 276.5 753.3 286.5 745.4 287.8 C 737.5 289.2 726.4 283.2 722.2 277.0 C 718.0 270.8 716.7 258.6 720.3 250.5 Z" fill="#1f639c"/>
<path class="contour" d="M 140.5 141.9 C 144.7 123.4 151.8 96.2 159.5 85.1 C 167.1 74.1 176.8 73.6 186.5 75.7 C 196.2 77.7 205.4 87.4 217.6 97.3 C 229.7 107.2 243.5 121.6 259.5 135.1 C 275.5 148.6 295.5 162.6 313.5 178.4 C 331.5 194.1 351.4 214.6 367.6 229.7 C 383.8 244.8 396.8 256.1 410.8 268.9 C 424.8 281.8 439.2 295.0 451.4 306.8 C 463.5 318.5 473.9 329.5 483.8 339.2 C 493.7 348.9 501.8 358.6 510.8 364.9 C 519.8 371.1 528.8 377.4 537.8 376.5 C 546.8 375.6 554.5 367.0 564.9 359.5 C 575.2 351.9 589.2 341.0 600.0 331.1 C 610.8 321.2 620.0 310.6 629.7 300.0 C 639.4 289.4 648.2 278.2 658.1 267.6 C 668.0 257.0 678.6 245.5 689.2 236.5 C 699.8 227.5 710.6 218.9 721.6 213.5 C 732.7 208.1 744.4 203.2 755.4 204.1 C 766.4 205.0 779.5 211.5 787.8 218.9 C 796.2 226.4 802.0 237.8 805.4 248.6 C 808.8 259.5 810.6 272.1 808.1 283.8 C 805.6 295.5 799.1 308.3 790.5 318.9 C 782.0 329.5 769.1 339.5 756.8 347.3 C 744.4 355.1 729.7 361.3 716.2 365.7 C 702.7 370.1 689.2 371.7 675.7 373.8 C 662.2 375.9 647.7 375.6 635.1 378.4 C 622.5 381.2 612.6 385.4 600.0 390.5 C 587.4 395.7 572.5 404.3 559.5 409.5 C 546.4 414.6 534.2 420.3 521.6 421.6 C 509.0 423.0 496.8 418.7 483.8 417.6 C 470.7 416.4 457.2 414.6 443.2 414.9 C 429.3 415.1 414.9 417.8 400.0 418.9 C 385.1 420.0 369.4 422.1 354.1 421.6 C 338.7 421.2 323.9 416.4 308.1 416.2 C 292.3 416.1 276.1 421.4 259.5 420.8 C 242.8 420.2 223.9 417.5 208.1 412.7 C 192.3 407.9 175.3 400.8 164.9 391.9 C 154.4 383.0 150.5 372.1 145.4 359.5 C 140.4 346.8 136.8 333.6 134.6 316.2 C 132.3 298.9 131.9 275.5 131.9 255.4 C 131.9 235.4 133.2 214.9 134.6 195.9 C 136.0 177.0 136.4 160.4 140.5 141.9 Z"/>
<path class="contour" d="M 164.9 163.5 C 171.5 150.0 182.4 138.3 191.9 135.1 C 201.4 132.0 209.9 138.3 221.6 144.6 C 233.3 150.9 248.6 162.8 262.2 173.0 C 275.7 183.1 289.2 194.6 302.7 205.4 C 316.2 216.2 330.0 226.4 343.2 237.8 C 356.5 249.3 371.6 262.8 382.4 274.3 C 393.2 285.8 402.7 296.2 408.1 306.8 C 413.5 317.3 417.3 328.4 414.9 337.8 C 412.4 347.3 403.6 357.1 393.2 363.5 C 382.9 370.0 368.2 376.3 352.7 376.5 C 337.2 376.7 317.8 364.8 300.0 364.9 C 282.2 365.0 263.7 377.3 245.9 377.0 C 228.2 376.7 206.7 370.0 193.2 363.0 C 179.8 356.0 172.3 348.6 165.4 335.1 C 158.5 321.7 154.1 302.3 151.9 282.4 C 149.6 262.6 149.7 236.0 151.9 216.2 C 154.1 196.4 158.2 177.0 164.9 163.5 Z"/>
<path class="contour" d="M 679.7 256.8 C 683.4 245.3 695.3 232.1 705.4 224.3 C 715.5 216.5 729.3 210.6 740.5 210.0 C 751.8 209.4 764.5 214.5 773.0 220.8 C 781.4 227.1 789.2 237.5 791.4 247.8 C 793.5 258.2 792.2 272.7 785.9 283.0 C 779.7 293.2 766.1 304.1 754.1 309.5 C 742.0 314.8 725.3 317.6 713.5 314.9 C 701.7 312.2 688.9 302.9 683.2 293.2 C 677.6 283.6 676.0 268.2 679.7 256.8 Z"/>
<path class="contour" d="M 174.3 216.2 C 179.2 207.7 194.6 197.4 205.4 196.5 C 216.2 195.6 231.0 204.1 239.2 210.8 C 247.4 217.6 255.7 228.7 254.6 237.0 C 253.5 245.4 241.6 255.9 232.4 260.8 C 223.2 265.7 208.8 268.5 199.5 266.2 C 190.1 264.0 180.4 255.6 176.2 247.3 C 172.0 239.0 169.5 224.7 174.3 216.2 Z"/>
<path class="contour" d="M 720.3 250.5 C 723.9 242.5 736.0 230.3 743.8 228.9 C 751.6 227.6 762.7 235.8 767.0 242.4 C 771.4 249.1 773.3 261.4 769.7 268.9 C 766.1 276.5 753.3 286.5 745.4 287.8 C 737.5 289.2 726.4 283.2 722.2 277.0 C 718.0 270.8 716.7 258.6 720.3 250.5 Z"/>
</g>
<path d="M 61.6 225.7 C 61.7 222.1 65.0 221.0 67.0 217.6 C 69.1 214.1 72.9 207.3 75.1 202.7 C 77.4 198.1 80.2 191.4 81.9 187.0 C 83.6 182.6 85.2 177.7 86.5 173.5 C 87.8 169.3 89.5 165.3 90.5 158.9 C 91.6 152.6 92.1 136.7 93.2 131.1 C 94.3 125.5 96.2 124.5 97.8 121.6 C 99.5 118.7 102.8 114.9 104.3 111.6 C 105.9 108.4 106.8 103.0 108.1 100.0 C 109.4 97.0 111.6 93.9 113.0 91.9 C 114.4 89.9 115.5 89.7 117.6 86.5 C 119.7 83.2 124.1 75.0 127.0 70.3 C 130.0 65.5 132.2 59.2 137.3 54.9 C 142.4 50.5 153.8 43.7 160.8 41.4 C 167.9 39.0 177.7 38.6 184.3 39.2 C 190.9 39.8 199.7 40.2 204.9 45.1 C 210.1 50.1 211.5 62.9 218.9 72.2 C 226.3 81.4 243.1 96.5 254.1 106.8 C 265.0 117.0 280.1 131.7 291.9 140.5 C 303.7 149.4 321.9 157.7 333.0 165.7 C 344.0 173.7 354.3 183.6 365.4 193.8 C 376.5 203.9 396.3 223.1 407.0 233.2 C 417.7 243.4 428.8 255.1 436.8 261.4 C 444.7 267.6 453.4 267.6 460.0 274.9 C 466.6 282.1 474.7 300.2 481.1 309.5 C 487.5 318.7 497.2 329.3 502.7 336.5 C 508.2 343.7 512.9 353.6 517.6 357.6 C 522.2 361.5 527.9 363.0 533.8 363.0 C 539.7 363.0 548.2 362.8 556.8 357.6 C 565.3 352.4 580.9 338.2 590.5 328.4 C 600.2 318.5 611.6 302.2 621.1 291.9 C 630.5 281.6 644.3 269.2 653.5 259.5 C 662.7 249.7 673.9 235.5 682.4 227.0 C 690.9 218.5 702.3 209.5 710.3 202.7 C 718.3 195.9 729.4 186.8 735.7 181.9 C 741.9 177.0 746.3 172.3 751.9 170.3 C 757.5 168.2 766.6 168.1 773.0 168.4 C 779.3 168.7 787.1 169.0 794.1 172.2 C 801.0 175.3 814.3 184.9 819.5 189.5 C 824.6 194.0 826.2 198.2 828.6 202.7 C 831.1 207.2 831.0 214.6 835.7 219.7 C 840.4 224.9 853.7 232.0 860.0 237.0 C 866.3 242.1 873.1 248.9 877.8 253.2 C 882.5 257.6 887.7 264.5 891.4 266.2 C 895.0 268.0 899.3 263.6 902.2 264.9 C 905.0 266.2 908.5 271.5 910.3 274.9 C 912.1 278.2 911.1 282.8 914.1 287.3 C 917.1 291.8 925.4 299.2 930.3 304.6 C 935.1 310.0 941.2 318.0 946.5 323.5 C 951.8 329.0 960.1 336.1 965.4 341.4 C 970.7 346.6 976.5 353.6 981.6 358.6 C 986.7 363.7 995.4 368.4 999.5 374.9 C 1003.5 381.4 1004.0 394.2 1008.6 401.9 C 1013.3 409.6 1026.4 420.9 1030.3 426.2 C 1034.2 431.5 1035.0 434.8 1034.6 437.0 C 1034.2 439.3 1028.0 439.9 1027.6 441.4 C 1027.2 442.8 1036.1 445.8 1031.9 446.8 C 1027.6 447.7 1029.9 447.6 999.2 447.8 C 968.5 448.1 881.2 448.2 827.0 448.6 C 772.8 449.1 688.1 450.3 637.8 450.5 C 587.6 450.8 516.6 449.8 491.9 450.5 C 467.2 451.3 479.5 454.5 473.0 455.4 C 466.5 456.3 456.6 456.3 448.6 456.8 C 440.7 457.2 444.6 458.4 420.3 458.6 C 395.9 458.9 330.3 458.3 286.5 458.1 C 242.7 457.9 154.5 457.9 128.4 457.3 C 102.2 456.7 116.6 455.8 112.2 454.1 C 107.7 452.4 102.7 449.1 98.6 445.9 C 94.6 442.8 89.0 437.3 85.1 433.2 C 81.3 429.2 76.3 422.8 73.0 418.9 C 69.6 415.0 65.5 411.2 62.7 407.3 C 59.9 403.4 56.2 396.9 54.1 392.7 C 51.9 388.5 49.2 383.6 48.1 379.2 C 47.0 374.7 46.3 368.2 46.5 363.0 C 46.6 357.8 47.6 349.7 49.2 344.6 C 50.7 339.5 54.4 334.2 56.8 328.9 C 59.1 323.6 62.8 314.8 64.9 309.5 C 66.9 304.1 69.0 296.4 70.3 293.2 C 71.6 290.1 72.6 290.9 73.5 288.4 C 74.4 285.9 76.2 279.8 76.2 276.5 C 76.2 273.2 74.4 269.8 73.5 266.2 C 72.6 262.6 71.3 256.4 70.3 252.7 C 69.2 249.0 67.8 245.4 66.5 241.4 C 65.2 237.3 61.5 229.2 61.6 225.7 Z" fill="none" stroke="#2b6a99" stroke-width="2.2"/>
<text class="dlabel" x="173.0" y="117.6" fill="#ffffff">10m</text>
<text class="dlabel" x="286.5" y="323.0" fill="#ffffff">15m</text>
<text class="dlabel" x="213.5" y="236.5" fill="#ffffff">18m</text>
<text class="dlabel" x="744.6" y="258.6" fill="#ffffff">18m</text>
<text class="dlabel" x="770.3" y="298.6" fill="#ffffff">15m</text>
<text class="dlabel" x="581.1" y="394.6" fill="#ffffff">10m</text>
<text class="dlabel" x="881.1" y="385.1" fill="#2b6a99">&#177; 5 m</text>
<text class="dlabel" x="97.3" y="336.5" fill="#2b6a99">&#177; 5 m</text>
<g class="stek" font-size="8">
<line x1="93.2" y1="131.1" x2="78.2" y2="128.1" stroke="#1d4e79" stroke-width="0.8"/>
<circle cx="78.2" cy="128.1" r="6.6"/>
<text x="78.2" y="130.7">1</text>
<line x1="105.4" y1="108.6" x2="90.4" y2="105.6" stroke="#1d4e79" stroke-width="0.8"/>
<circle cx="90.4" cy="105.6" r="6.6"/>
<text x="90.4" y="108.2">3</text>
<line x1="117.6" y1="86.5" x2="102.6" y2="83.5" stroke="#1d4e79" stroke-width="0.8"/>
<circle cx="102.6" cy="83.5" r="6.6"/>
<text x="102.6" y="86.1">5</text>
<line x1="137.3" y1="55.9" x2="122.3" y2="52.9" stroke="#1d4e79" stroke-width="0.8"/>
<circle cx="122.3" cy="52.9" r="6.6"/>
<text x="122.3" y="55.5">7</text>
<line x1="62.2" y1="226.8" x2="48.2" y2="229.8" stroke="#1d4e79" stroke-width="0.8"/>
<circle cx="48.2" cy="229.8" r="6.6"/>
<text x="48.2" y="232.4">2</text>
<line x1="66.5" y1="241.4" x2="39.5" y2="244.4" stroke="#1d4e79" stroke-width="0.8"/>
<circle cx="39.5" cy="244.4" r="6.6"/>
<text x="39.5" y="247.0">4</text>
<line x1="70.0" y1="251.9" x2="56.0" y2="254.9" stroke="#1d4e79" stroke-width="0.8"/>
<circle cx="56.0" cy="254.9" r="6.6"/>
<text x="56.0" y="257.5">6</text>
<line x1="73.2" y1="262.7" x2="46.2" y2="265.7" stroke="#1d4e79" stroke-width="0.8"/>
<circle cx="46.2" cy="265.7" r="6.6"/>
<text x="46.2" y="268.3">8</text>
<line x1="75.7" y1="272.2" x2="61.7" y2="275.2" stroke="#1d4e79" stroke-width="0.8"/>
<circle cx="61.7" cy="275.2" r="6.6"/>
<text x="61.7" y="277.8">10</text>
<line x1="218.9" y1="72.2" x2="228.9" y2="61.2" stroke="#1d4e79" stroke-width="0.8"/>
<circle cx="228.9" cy="61.2" r="6.6"/>
<text x="228.9" y="63.8">9</text>
<line x1="230.1" y1="83.2" x2="240.1" y2="72.2" stroke="#1d4e79" stroke-width="0.8"/>
<circle cx="240.1" cy="72.2" r="6.6"/>
<text x="240.1" y="74.8">11</text>
<line x1="242.9" y1="95.7" x2="252.9" y2="84.7" stroke="#1d4e79" stroke-width="0.8"/>
<circle cx="252.9" cy="84.7" r="6.6"/>
<text x="252.9" y="87.3">13</text>
<line x1="254.1" y1="106.8" x2="264.1" y2="95.8" stroke="#1d4e79" stroke-width="0.8"/>
<circle cx="264.1" cy="95.8" r="6.6"/>
<text x="264.1" y="98.4">15</text>
<line x1="267.2" y1="118.5" x2="277.2" y2="107.5" stroke="#1d4e79" stroke-width="0.8"/>
<circle cx="277.2" cy="107.5" r="6.6"/>
<text x="277.2" y="110.1">17</text>
<line x1="278.7" y1="128.8" x2="288.7" y2="117.8" stroke="#1d4e79" stroke-width="0.8"/>
<circle cx="288.7" cy="117.8" r="6.6"/>
<text x="288.7" y="120.4">19</text>
<line x1="291.9" y1="140.5" x2="301.9" y2="129.5" stroke="#1d4e79" stroke-width="0.8"/>
<circle cx="301.9" cy="129.5" r="6.6"/>
<text x="301.9" y="132.1">21</text>
<line x1="306.8" y1="149.7" x2="316.8" y2="138.7" stroke="#1d4e79" stroke-width="0.8"/>
<circle cx="316.8" cy="138.7" r="6.6"/>
<text x="316.8" y="141.3">23</text>
<line x1="319.9" y1="157.7" x2="329.9" y2="146.7" stroke="#1d4e79" stroke-width="0.8"/>
<circle cx="329.9" cy="146.7" r="6.6"/>
<text x="329.9" y="149.3">25</text>
<line x1="334.7" y1="167.2" x2="344.7" y2="156.2" stroke="#1d4e79" stroke-width="0.8"/>
<circle cx="344.7" cy="156.2" r="6.6"/>
<text x="344.7" y="158.8">27</text>
<line x1="346.6" y1="177.5" x2="356.6" y2="166.5" stroke="#1d4e79" stroke-width="0.8"/>
<circle cx="356.6" cy="166.5" r="6.6"/>
<text x="356.6" y="169.1">29</text>
<line x1="358.6" y1="187.9" x2="368.6" y2="176.9" stroke="#1d4e79" stroke-width="0.8"/>
<circle cx="368.6" cy="176.9" r="6.6"/>
<text x="368.6" y="179.5">31</text>
<line x1="371.8" y1="199.9" x2="381.8" y2="188.9" stroke="#1d4e79" stroke-width="0.8"/>
<circle cx="381.8" cy="188.9" r="6.6"/>
<text x="381.8" y="191.5">33</text>
<line x1="383.0" y1="210.5" x2="393.0" y2="199.5" stroke="#1d4e79" stroke-width="0.8"/>
<circle cx="393.0" cy="199.5" r="6.6"/>
<text x="393.0" y="202.1">35</text>
<line x1="395.8" y1="222.6" x2="405.8" y2="211.6" stroke="#1d4e79" stroke-width="0.8"/>
<circle cx="405.8" cy="211.6" r="6.6"/>
<text x="405.8" y="214.2">37</text>
<line x1="408.7" y1="234.8" x2="418.7" y2="223.8" stroke="#1d4e79" stroke-width="0.8"/>
<circle cx="418.7" cy="223.8" r="6.6"/>
<text x="418.7" y="226.4">39</text>
<line x1="420.2" y1="245.7" x2="430.2" y2="234.7" stroke="#1d4e79" stroke-width="0.8"/>
<circle cx="430.2" cy="234.7" r="6.6"/>
<text x="430.2" y="237.3">41</text>
<line x1="431.8" y1="256.7" x2="441.8" y2="245.7" stroke="#1d4e79" stroke-width="0.8"/>
<circle cx="441.8" cy="245.7" r="6.6"/>
<text x="441.8" y="248.3">43</text>
<line x1="446.4" y1="267.0" x2="456.4" y2="256.0" stroke="#1d4e79" stroke-width="0.8"/>
<circle cx="456.4" cy="256.0" r="6.6"/>
<text x="456.4" y="258.6">45</text>
<line x1="460.0" y1="274.9" x2="470.0" y2="263.9" stroke="#1d4e79" stroke-width="0.8"/>
<circle cx="470.0" cy="263.9" r="6.6"/>
<text x="470.0" y="266.5">47</text>
<line x1="482.4" y1="310.0" x2="494.4" y2="302.0" stroke="#1d4e79" stroke-width="0.8"/>
<circle cx="494.4" cy="302.0" r="6.6"/>
<text x="494.4" y="304.6">49</text>
<line x1="502.7" y1="335.9" x2="514.7" y2="327.9" stroke="#1d4e79" stroke-width="0.8"/>
<circle cx="514.7" cy="327.9" r="6.6"/>
<text x="514.7" y="330.5">51</text>
<line x1="516.8" y1="354.3" x2="528.8" y2="346.3" stroke="#1d4e79" stroke-width="0.8"/>
<circle cx="528.8" cy="346.3" r="6.6"/>
<text x="528.8" y="348.9">53</text>
<line x1="541.9" y1="362.2" x2="545.9" y2="377.2" stroke="#1d4e79" stroke-width="0.8"/>
<circle cx="545.9" cy="377.2" r="6.6"/>
<text x="545.9" y="379.8">55</text>
<line x1="570.3" y1="345.9" x2="558.3" y2="336.9" stroke="#1d4e79" stroke-width="0.8"/>
<circle cx="558.3" cy="336.9" r="6.6"/>
<text x="558.3" y="339.5">57</text>
<line x1="587.2" y1="331.3" x2="575.2" y2="322.3" stroke="#1d4e79" stroke-width="0.8"/>
<circle cx="575.2" cy="322.3" r="6.6"/>
<text x="575.2" y="324.9">59</text>
<line x1="603.0" y1="313.5" x2="591.0" y2="304.5" stroke="#1d4e79" stroke-width="0.8"/>
<circle cx="591.0" cy="304.5" r="6.6"/>
<text x="591.0" y="307.1">61</text>
<line x1="618.3" y1="295.2" x2="606.3" y2="286.2" stroke="#1d4e79" stroke-width="0.8"/>
<circle cx="606.3" cy="286.2" r="6.6"/>
<text x="606.3" y="288.8">63</text>
<line x1="633.4" y1="279.5" x2="621.4" y2="270.5" stroke="#1d4e79" stroke-width="0.8"/>
<circle cx="621.4" cy="270.5" r="6.6"/>
<text x="621.4" y="273.1">65</text>
<line x1="650.4" y1="262.5" x2="638.4" y2="253.5" stroke="#1d4e79" stroke-width="0.8"/>
<circle cx="638.4" cy="253.5" r="6.6"/>
<text x="638.4" y="256.1">67</text>
<line x1="666.5" y1="244.9" x2="654.5" y2="235.9" stroke="#1d4e79" stroke-width="0.8"/>
<circle cx="654.5" cy="235.9" r="6.6"/>
<text x="654.5" y="238.5">69</text>
<line x1="681.0" y1="228.6" x2="669.0" y2="219.6" stroke="#1d4e79" stroke-width="0.8"/>
<circle cx="669.0" cy="219.6" r="6.6"/>
<text x="669.0" y="222.2">71</text>
<line x1="698.8" y1="212.7" x2="686.8" y2="203.7" stroke="#1d4e79" stroke-width="0.8"/>
<circle cx="686.8" cy="203.7" r="6.6"/>
<text x="686.8" y="206.3">73</text>
<line x1="715.4" y1="198.5" x2="703.4" y2="189.5" stroke="#1d4e79" stroke-width="0.8"/>
<circle cx="703.4" cy="189.5" r="6.6"/>
<text x="703.4" y="192.1">75</text>
<line x1="734.0" y1="183.3" x2="722.0" y2="174.3" stroke="#1d4e79" stroke-width="0.8"/>
<circle cx="722.0" cy="174.3" r="6.6"/>
<text x="722.0" y="176.9">77</text>
<line x1="831.9" y1="210.8" x2="843.9" y2="202.8" stroke="#1d4e79" stroke-width="0.8"/>
<circle cx="843.9" cy="202.8" r="6.6"/>
<text x="843.9" y="205.4">79</text>
<line x1="860.0" y1="237.0" x2="872.0" y2="229.0" stroke="#1d4e79" stroke-width="0.8"/>
<circle cx="872.0" cy="229.0" r="6.6"/>
<text x="872.0" y="231.6">81</text>
<line x1="877.8" y1="253.2" x2="889.8" y2="245.2" stroke="#1d4e79" stroke-width="0.8"/>
<circle cx="889.8" cy="245.2" r="6.6"/>
<text x="889.8" y="247.8">83</text>
<line x1="892.7" y1="267.0" x2="904.7" y2="259.0" stroke="#1d4e79" stroke-width="0.8"/>
<circle cx="904.7" cy="259.0" r="6.6"/>
<text x="904.7" y="261.6">85</text>
<line x1="914.1" y1="287.3" x2="926.1" y2="279.3" stroke="#1d4e79" stroke-width="0.8"/>
<circle cx="926.1" cy="279.3" r="6.6"/>
<text x="926.1" y="281.9">87</text>
<line x1="930.3" y1="304.6" x2="942.3" y2="296.6" stroke="#1d4e79" stroke-width="0.8"/>
<circle cx="942.3" cy="296.6" r="6.6"/>
<text x="942.3" y="299.2">89</text>
<line x1="946.5" y1="323.5" x2="958.5" y2="315.5" stroke="#1d4e79" stroke-width="0.8"/>
<circle cx="958.5" cy="315.5" r="6.6"/>
<text x="958.5" y="318.1">91</text>
<line x1="965.4" y1="341.4" x2="977.4" y2="333.4" stroke="#1d4e79" stroke-width="0.8"/>
<circle cx="977.4" cy="333.4" r="6.6"/>
<text x="977.4" y="336.0">93</text>
<line x1="981.6" y1="358.6" x2="993.6" y2="350.6" stroke="#1d4e79" stroke-width="0.8"/>
<circle cx="993.6" cy="350.6" r="6.6"/>
<text x="993.6" y="353.2">95</text>
<line x1="999.5" y1="375.7" x2="1011.5" y2="367.7" stroke="#1d4e79" stroke-width="0.8"/>
<circle cx="1011.5" cy="367.7" r="6.6"/>
<text x="1011.5" y="370.3">97</text>
<line x1="1008.6" y1="401.9" x2="1020.6" y2="393.9" stroke="#1d4e79" stroke-width="0.8"/>
<circle cx="1020.6" cy="393.9" r="6.6"/>
<text x="1020.6" y="396.5">99</text>
<line x1="491.9" y1="449.5" x2="491.9" y2="465.5" stroke="#1d4e79" stroke-width="0.8"/>
<circle cx="491.9" cy="465.5" r="6.6"/>
<text x="491.9" y="468.1">54</text>
<line x1="513.9" y1="449.5" x2="513.9" y2="465.5" stroke="#1d4e79" stroke-width="0.8"/>
<circle cx="513.9" cy="465.5" r="6.6"/>
<text x="513.9" y="468.1">56</text>
<line x1="536.0" y1="449.5" x2="536.0" y2="465.5" stroke="#1d4e79" stroke-width="0.8"/>
<circle cx="536.0" cy="465.5" r="6.6"/>
<text x="536.0" y="468.1">58</text>
<line x1="558.1" y1="449.5" x2="558.1" y2="465.5" stroke="#1d4e79" stroke-width="0.8"/>
<circle cx="558.1" cy="465.5" r="6.6"/>
<text x="558.1" y="468.1">60</text>
<line x1="580.1" y1="449.5" x2="580.1" y2="465.5" stroke="#1d4e79" stroke-width="0.8"/>
<circle cx="580.1" cy="465.5" r="6.6"/>
<text x="580.1" y="468.1">62</text>
<line x1="602.2" y1="449.5" x2="602.2" y2="465.5" stroke="#1d4e79" stroke-width="0.8"/>
<circle cx="602.2" cy="465.5" r="6.6"/>
<text x="602.2" y="468.1">64</text>
<line x1="624.2" y1="449.5" x2="624.2" y2="465.5" stroke="#1d4e79" stroke-width="0.8"/>
<circle cx="624.2" cy="465.5" r="6.6"/>
<text x="624.2" y="468.1">66</text>
<line x1="646.3" y1="449.5" x2="646.3" y2="465.5" stroke="#1d4e79" stroke-width="0.8"/>
<circle cx="646.3" cy="465.5" r="6.6"/>
<text x="646.3" y="468.1">68</text>
<line x1="668.3" y1="449.5" x2="668.3" y2="465.5" stroke="#1d4e79" stroke-width="0.8"/>
<circle cx="668.3" cy="465.5" r="6.6"/>
<text x="668.3" y="468.1">70</text>
<line x1="690.4" y1="449.5" x2="690.4" y2="465.5" stroke="#1d4e79" stroke-width="0.8"/>
<circle cx="690.4" cy="465.5" r="6.6"/>
<text x="690.4" y="468.1">72</text>
<line x1="712.5" y1="449.5" x2="712.5" y2="465.5" stroke="#1d4e79" stroke-width="0.8"/>
<circle cx="712.5" cy="465.5" r="6.6"/>
<text x="712.5" y="468.1">74</text>
<line x1="734.5" y1="449.5" x2="734.5" y2="465.5" stroke="#1d4e79" stroke-width="0.8"/>
<circle cx="734.5" cy="465.5" r="6.6"/>
<text x="734.5" y="468.1">76</text>
<line x1="756.6" y1="449.5" x2="756.6" y2="465.5" stroke="#1d4e79" stroke-width="0.8"/>
<circle cx="756.6" cy="465.5" r="6.6"/>
<text x="756.6" y="468.1">78</text>
<line x1="778.6" y1="449.5" x2="778.6" y2="465.5" stroke="#1d4e79" stroke-width="0.8"/>
<circle cx="778.6" cy="465.5" r="6.6"/>
<text x="778.6" y="468.1">80</text>
<line x1="800.7" y1="449.5" x2="800.7" y2="465.5" stroke="#1d4e79" stroke-width="0.8"/>
<circle cx="800.7" cy="465.5" r="6.6"/>
<text x="800.7" y="468.1">82</text>
<line x1="822.7" y1="449.5" x2="822.7" y2="465.5" stroke="#1d4e79" stroke-width="0.8"/>
<circle cx="822.7" cy="465.5" r="6.6"/>
<text x="822.7" y="468.1">84</text>
<line x1="844.8" y1="449.5" x2="844.8" y2="465.5" stroke="#1d4e79" stroke-width="0.8"/>
<circle cx="844.8" cy="465.5" r="6.6"/>
<text x="844.8" y="468.1">86</text>
<line x1="866.9" y1="449.5" x2="866.9" y2="465.5" stroke="#1d4e79" stroke-width="0.8"/>
<circle cx="866.9" cy="465.5" r="6.6"/>
<text x="866.9" y="468.1">88</text>
<line x1="888.9" y1="449.5" x2="888.9" y2="465.5" stroke="#1d4e79" stroke-width="0.8"/>
<circle cx="888.9" cy="465.5" r="6.6"/>
<text x="888.9" y="468.1">90</text>
<line x1="911.0" y1="449.5" x2="911.0" y2="465.5" stroke="#1d4e79" stroke-width="0.8"/>
<circle cx="911.0" cy="465.5" r="6.6"/>
<text x="911.0" y="468.1">92</text>
<line x1="933.0" y1="449.5" x2="933.0" y2="465.5" stroke="#1d4e79" stroke-width="0.8"/>
<circle cx="933.0" cy="465.5" r="6.6"/>
<text x="933.0" y="468.1">94</text>
<line x1="955.1" y1="449.5" x2="955.1" y2="465.5" stroke="#1d4e79" stroke-width="0.8"/>
<circle cx="955.1" cy="465.5" r="6.6"/>
<text x="955.1" y="468.1">96</text>
<line x1="977.1" y1="449.5" x2="977.1" y2="465.5" stroke="#1d4e79" stroke-width="0.8"/>
<circle cx="977.1" cy="465.5" r="6.6"/>
<text x="977.1" y="468.1">98</text>
<line x1="999.2" y1="449.5" x2="999.2" y2="465.5" stroke="#1d4e79" stroke-width="0.8"/>
<circle cx="999.2" cy="465.5" r="6.6"/>
<text x="999.2" y="468.1">100</text>
<line x1="128.4" y1="457.8" x2="128.4" y2="473.8" stroke="#1d4e79" stroke-width="0.8"/>
<circle cx="128.4" cy="473.8" r="6.6"/>
<text x="128.4" y="476.4">20</text>
<line x1="146.6" y1="457.8" x2="146.6" y2="473.8" stroke="#1d4e79" stroke-width="0.8"/>
<circle cx="146.6" cy="473.8" r="6.6"/>
<text x="146.6" y="476.4">22</text>
<line x1="164.9" y1="457.8" x2="164.9" y2="473.8" stroke="#1d4e79" stroke-width="0.8"/>
<circle cx="164.9" cy="473.8" r="6.6"/>
<text x="164.9" y="476.4">24</text>
<line x1="183.1" y1="457.8" x2="183.1" y2="473.8" stroke="#1d4e79" stroke-width="0.8"/>
<circle cx="183.1" cy="473.8" r="6.6"/>
<text x="183.1" y="476.4">26</text>
<line x1="201.4" y1="457.8" x2="201.4" y2="473.8" stroke="#1d4e79" stroke-width="0.8"/>
<circle cx="201.4" cy="473.8" r="6.6"/>
<text x="201.4" y="476.4">28</text>
<line x1="219.6" y1="457.8" x2="219.6" y2="473.8" stroke="#1d4e79" stroke-width="0.8"/>
<circle cx="219.6" cy="473.8" r="6.6"/>
<text x="219.6" y="476.4">30</text>
<line x1="237.8" y1="457.8" x2="237.8" y2="473.8" stroke="#1d4e79" stroke-width="0.8"/>
<circle cx="237.8" cy="473.8" r="6.6"/>
<text x="237.8" y="476.4">32</text>
<line x1="256.1" y1="457.8" x2="256.1" y2="473.8" stroke="#1d4e79" stroke-width="0.8"/>
<circle cx="256.1" cy="473.8" r="6.6"/>
<text x="256.1" y="476.4">34</text>
<line x1="274.3" y1="457.8" x2="274.3" y2="473.8" stroke="#1d4e79" stroke-width="0.8"/>
<circle cx="274.3" cy="473.8" r="6.6"/>
<text x="274.3" y="476.4">36</text>
<line x1="292.6" y1="457.8" x2="292.6" y2="473.8" stroke="#1d4e79" stroke-width="0.8"/>
<circle cx="292.6" cy="473.8" r="6.6"/>
<text x="292.6" y="476.4">38</text>
<line x1="310.8" y1="457.8" x2="310.8" y2="473.8" stroke="#1d4e79" stroke-width="0.8"/>
<circle cx="310.8" cy="473.8" r="6.6"/>
<text x="310.8" y="476.4">40</text>
<line x1="329.1" y1="457.8" x2="329.1" y2="473.8" stroke="#1d4e79" stroke-width="0.8"/>
<circle cx="329.1" cy="473.8" r="6.6"/>
<text x="329.1" y="476.4">42</text>
<line x1="347.3" y1="457.8" x2="347.3" y2="473.8" stroke="#1d4e79" stroke-width="0.8"/>
<circle cx="347.3" cy="473.8" r="6.6"/>
<text x="347.3" y="476.4">44</text>
<line x1="365.5" y1="457.8" x2="365.5" y2="473.8" stroke="#1d4e79" stroke-width="0.8"/>
<circle cx="365.5" cy="473.8" r="6.6"/>
<text x="365.5" y="476.4">46</text>
<line x1="383.8" y1="457.8" x2="383.8" y2="473.8" stroke="#1d4e79" stroke-width="0.8"/>
<circle cx="383.8" cy="473.8" r="6.6"/>
<text x="383.8" y="476.4">48</text>
<line x1="402.0" y1="457.8" x2="402.0" y2="473.8" stroke="#1d4e79" stroke-width="0.8"/>
<circle cx="402.0" cy="473.8" r="6.6"/>
<text x="402.0" y="476.4">50</text>
<line x1="420.3" y1="457.8" x2="420.3" y2="473.8" stroke="#1d4e79" stroke-width="0.8"/>
<circle cx="420.3" cy="473.8" r="6.6"/>
<text x="420.3" y="476.4">52</text>
</g>
<text x="3.0" y="269.3" fill="#8a3d2f" font-size="12" font-weight="700" text-anchor="start">ingang</text>
<path d="M 23.0 259.3 L 53.0 241.3" stroke="#8a3d2f" stroke-width="1.6" fill="none" marker-end="url(#arr)"/>
<defs><marker id="arr" viewBox="0 0 10 10" refX="8" refY="5" markerWidth="7" markerHeight="7" orient="auto"><path d="M0 0 L10 5 L0 10 z" fill="#8a3d2f"/></marker></defs>
<rect x="49.7" y="177.4" width="11" height="8" fill="#8a7f63" stroke="#5b5442" stroke-width="1"/>
<text x="45.7" y="185.4" fill="#5b5442" font-size="10" font-style="italic" text-anchor="end">schuilhut</text>
<text x="460.8" y="489.0" fill="#5b5442" font-size="10" font-style="italic" text-anchor="middle">duiker</text>
<text x="934.1" y="250.8" fill="#5b5442" font-size="10" font-style="italic" text-anchor="start">brug</text>
<g stroke="#4a4536" fill="#4a4536"><line x1="585" y1="86" x2="585" y2="46" stroke-width="1.6"/><path d="M 585 38 L 579 54 L 585 49 L 591 54 Z"/><text x="585" y="104" text-anchor="middle" font-size="13" font-weight="700" stroke="none">N</text></g>
<text x="30" y="618" font-size="26" font-weight="700" fill="#123c5e">Plas van der Ende</text>
<text x="30" y="641" font-size="13" fill="#5b5442">Dieptekaart met steknummers 1 t/m 100 &#183; NPHV Nootdorps Pijnackerse Hengelsport Vereniging</text>
<text x="30" y="660" font-size="11" fill="#8a8268">Nagetekend naar de originele dieptemetingen (schaal 1:2000) &#183; dieptes in meters</text>
<text x="700" y="592" font-size="12" font-weight="700" fill="#123c5e">diepte</text>
<rect x="700" y="600" width="20" height="14" fill="#b9dcf2" stroke="#2b6a99" stroke-width="0.8" rx="2"/>
<text x="726" y="611" font-size="12" fill="#4a4536">0 - 10 m</text>
<rect x="805" y="600" width="20" height="14" fill="#7cbde4" stroke="#2b6a99" stroke-width="0.8" rx="2"/>
<text x="831" y="611" font-size="12" fill="#4a4536">10 - 15 m</text>
<rect x="910" y="600" width="20" height="14" fill="#3f8dc6" stroke="#2b6a99" stroke-width="0.8" rx="2"/>
<text x="936" y="611" font-size="12" fill="#4a4536">15 - 18 m</text>
<rect x="1015" y="600" width="20" height="14" fill="#1f639c" stroke="#2b6a99" stroke-width="0.8" rx="2"/>
<text x="1041" y="611" font-size="12" fill="#4a4536">&gt; 18 m</text>
<g class="stek" font-size="8"><circle cx="710" cy="640" r="6.6"/><text x="710" y="642.6">55</text></g>
<text x="726" y="644" font-size="12" fill="#4a4536">steknummer</text>
</svg>