<svg xmlns="http://www.w3.org/2000/svg" viewBox="0 0 1150 700" font-family="system-ui, Arial, sans-serif"><rect width="1150" height="700" fill="#f2eee1"/><path d="M 8 470 L 128 24" stroke="#c9c2ad" stroke-width="10" fill="none" stroke-linecap="round"/><path d="M 786 118 L 1142 488" stroke="#c9c2ad" stroke-width="10" fill="none" stroke-linecap="round"/><path d="M 20 548 L 1130 541" stroke="#c9c2ad" stroke-width="10" fill="none" stroke-linecap="round"/><path d="M 61.6 225.7 C 61.7 222.1 65.0 221.0 67.0 217.6 C 69.1 214.1 72.9 207.3 75.1 202.7 C 77.4 198.1 80.2 191.4 81.9 187.0 C 83.6 182.6 85.2 177.7 86.5 173.5 C 87.8 169.3 89.5 165.3 90.5 158.9 C 91.6 152.6 92.1 136.7 93.2 131.1 C 94.3 125.5 96.2 124.5 97.8 121.6 C 99.5 118.7 102.8 114.9 104.3 111.6 C 105.9 108.4 106.8 103.0 108.1 100.0 C 109.4 97.0 111.6 93.9 113.0 91.9 C 114.4 89.9 115.5 89.7 117.6 86.5 C 119.7 83.2 124.1 75.0 127.0 70.3 C 130.0 65.5 132.2 59.2 137.3 54.9 C 142.4 50.5 153.8 43.7 160.8 41.4 C 167.9 39.0 177.7 38.6 184.3 39.2 C 190.9 39.8 199.7 40.2 204.9 45.1 C 210.1 50.1 211.5 62.9 218.9 72.2 C 226.3 81.4 243.1 96.5 254.1 106.8 C 265.0 117.0 280.1 131.7 291.9 140.5 C 303.7 149.4 321.9 157.7 333.0 165.7 C 344.0 173.7 354.3 183.6 365.4 193.8 C 376.5 203.9 396.3 223.1 407.0 233.2 C 417.7 243.4 428.8 255.1 436.8 261.4 C 444.7 267.6 453.4 267.6 460.0 274.9 C 466.6 282.1 474.7 300.2 481.1 309.5 C 487.5 318.7 497.2 329.3 502.7 336.5 C 508.2 343.7 512.9 353.6 517.6 357.6 C 522.2 361.5 527.9 363.0 533.8 363.0 C 539.7 363.0 548.2 362.8 556.8 357.6 C 565.3 352.4 580.9 338.2 590.5 328.4 C 600.2 318.5 611.6 302.2 621.1 291.9 C 630.5 281.6 644.3 269.2 653.5 259.5 C 662.7 249.7 673.9 235.5 682.4 227.0 C 690.9 218.5 702.3 209.5 710.3 202.7 C 718.3 195.9 729.4 186.8 735.7 181.9 C 741.9 177.0 746.3 172.3 751.9 170.3 C 757.5 168.2 766.6 168.1 773.0 168.4 C 779.3 168.7 787.1 169.0 794.1 172.2 C 801.0 175.3 814.3 184.9 819.5 189.5 C 824.6 194.0 826.2 198.2 828.6 202.7 C 831.1 207.2 831.0 214.6 835.7 219.7 C 840.4 224.9 853.7 232.0 860.0 237.0 C 866.3 242.1 873.1 248.9 877.8 253.2 C 882.5 257.6 887.7 264.5 891.4 266.2 C 895.0 268.0 899.3 263.6 902.2 264.9 C 905.0 266.2 908.5 271.5 910.3 274.9 C 912.1 278.2 911.1 282.8 914.1 287.3 C 917.1 291.8 925.4 299.2 930.3 304.6 C 935.1 310.0 941.2 318.0 946.5 323.5 C 951.8 329.0 960.1 336.1 965.4 341.4 C 970.7 346.6 976.5 353.6 981.6 358.6 C 986.7 363.7 995.4 368.4 999.5 374.9 C 1003.5 381.4 1004.0 394.2 1008.6 401.9 C 1013.3 409.6 1026.4 420.9 1030.3 426.2 C 1034.2 431.5 1035.0 434.8 1034.6 437.0 C 1034.2 439.3 1028.0 439.9 1027.6 441.4 C 1027.2 442.8 1036.1 445.8 1031.9 446.8 C 1027.6 447.7 1029.9 447.6 999.2 447.8 C 968.5 448.1 881.2 448.2 827.0 448.6 C 772.8 449.1 688.1 450.3 637.8 450.5 C 587.6 450.8 516.6 449.8 491.9 450.5 C 467.2 451.3 479.5 454.5 473.0 455.4 C 466.5 456.3 456.6 456.3 448.6 456.8 C 440.7 457.2 444.6 458.4 420.3 458.6 C 395.9 458.9 330.3 458.3 286.5 458.1 C 242.7 457.9 154.5 457.9 128.4 457.3 C 102.2 456.7 116.6 455.8 112.2 454.1 C 107.7 452.4 102.7 449.1 98.6 445.9 C 94.6 442.8 89.0 437.3 85.1 433.2 C 81.3 429.2 76.3 422.8 73.0 418.9 C 69.6 415.0 65.5 411.2 62.7 407.3 C 59.9 403.4 56.2 396.9 54.1 392.7 C 51.9 388.5 49.2 383.6 48.1 379.2 C 47.0 374.7 46.3 368.2 46.5 363.0 C 46.6 357.8 47.6 349.7 49.2 344.6 C 50.7 339.5 54.4 334.2 56.8 328.9 C 59.1 323.6 62.8 314.8 64.9 309.5 C 66.9 304.1 69.0 296.4 70.3 293.2 C 71.6 290.1 72.6 290.9 73.5 288.4 C 74.4 285.9 76.2 279.8 76.2 276.5 C 76.2 273.2 74.4 269.8 73.5 266.2 C 72.6 262.6 71.3 256.4 70.3 252.7 C 69.2 249.0 67.8 245.4 66.5 241.4 C 65.2 237.3 61.5 229.2 61.6 225.7 Z" fill="#1d4e79" opacity="0.18" transform="translate(2.5,3.5)"/><path d="M 61.6 225.7 C 61.7 222.1 65.0 221.0 67.0 217.6 C 69.1 214.1 72.9 207.3 75.1 202.7 C 77.4 198.1 80.2 191.4 81.9 187.0 C 83.6 182.6 85.2 177.7 86.5 173.5 C 87.8 169.3 89.5 165.3 90.5 158.9 C 91.6 152.6 92.1 136.7 93.2 131.1 C 94.3 125.5 96.2 124.5 97.8 121.6 C 99.5 118.7 102.8 114.9 104.3 111.6 C 105.9 108.4 106.8 103.0 108.1 100.0 C 109.4 97.0 111.6 93.9 113.0 91.9 C 114.4 89.9 115.5 89.7 117.6 86.5 C 119.7 83.2 124.1 75.0 127.0 70.3 C 130.0 65.5 132.2 59.2 137.3 54.9 C 142.4 50.5 153.8 43.7 160.8 41.4 C 167.9 39.0 177.7 38.6 184.3 39.2 C 190.9 39.8 199.7 40.2 204.9 45.1 C 210.1 50.1 211.5 62.9 218.9 72.2 C 226.3 81.4 243.1 96.5 254.1 106.8 C 265.0 117.0 280.1 131.7 291.9 140.5 C 303.7 149.4 321.9 157.7 333.0 165.7 C 344.0 173.7 354.3 183.6 365.4 193.8 C 376.5 203.9 396.3 223.1 407.0 233.2 C 417.7 243.4 428.8 255.1 436.8 261.4 C 444.7 267.6 453.4 267.6 460.0 274.9 C 466.6 282.1 474.7 300.2 481.1 309.5 C 487.5 318.7 497.2 329.3 502.7 336.5 C 508.2 343.7 512.9 353.6 517.6 357.6 C 522.2 361.5 527.9 363.0 533.8 363.0 C 539.7 363.0 548.2 362.8 556.8 357.6 C 565.3 352.4 580.9 338.2 590.5 328.4 C 600.2 318.5 611.6 302.2 621.1 291.9 C 630.5 281.6 644.3 269.2 653.5 259.5 C 662.7 249.7 673.9 235.5 682.4 227.0 C 690.9 218.5 702.3 209.5 710.3 202.7 C 718.3 195.9 729.4 186.8 735.7 181.9 C 741.9 177.0 746.3 172.3 751.9 170.3 C 757.5 168.2 766.6 168.1 773.0 168.4 C 779.3 168.7 787.1 169.0 794.1 172.2 C 801.0 175.3 814.3 184.9 819.5 189.5 C 824.6 194.0 826.2 198.2 828.6 202.7 C 831.1 207.2 831.0 214.6 835.7 219.7 C 840.4 224.9 853.7 232.0 860.0 237.0 C 866.3 242.1 873.1 248.9 877.8 253.2 C 882.5 257.6 887.7 264.5 891.4 266.2 C 895.0 268.0 899.3 263.6 902.2 264.9 C 905.0 266.2 908.5 271.5 910.3 274.9 C 912.1 278.2 911.1 282.8 914.1 287.3 C 917.1 291.8 925.4 299.2 930.3 304.6 C 935.1 310.0 941.2 318.0 946.5 323.5 C 951.8 329.0 960.1 336.1 965.4 341.4 C 970.7 346.6 976.5 353.6 981.6 358.6 C 986.7 363.7 995.4 368.4 999.5 374.9 C 1003.5 381.4 1004.0 394.2 1008.6 401.9 C 1013.3 409.6 1026.4 420.9 1030.3 426.2 C 1034.2 431.5 1035.0 434.8 1034.6 437.0 C 1034.2 439.3 1028.0 439.9 1027.6 441.4 C 1027.2 442.8 1036.1 445.8 1031.9 446.8 C 1027.6 447.7 1029.9 447.6 999.2 447.8 C 968.5 448.1 881.2 448.2 827.0 448.6 C 772.8 449.1 688.1 450.3 637.8 450.5 C 587.6 450.8 516.6 449.8 491.9 450.5 C 467.2 451.3 479.5 454.5 473.0 455.4 C 466.5 456.3 456.6 456.3 448.6 456.8 C 440.7 457.2 444.6 458.4 420.3 458.6 C 395.9 458.9 330.3 458.3 286.5 458.1 C 242.7 457.9 154.5 457.9 128.4 457.3 C 102.2 456.7 116.6 455.8 112.2 454.1 C 107.7 452.4 102.7 449.1 98.6 445.9 C 94.6 442.8 89.0 437.3 85.1 433.2 C 81.3 429.2 76.3 422.8 73.0 418.9 C 69.6 415.0 65.5 411.2 62.7 407.3 C 59.9 403.4 56.2 396.9 54.1 392.7 C 51.9 388.5 49.2 383.6 48.1 379.2 C 47.0 374.7 46.3 368.2 46.5 363.0 C 46.6 357.8 47.6 349.7 49.2 344.6 C 50.7 339.5 54.4 334.2 56.8 328.9 C 59.1 323.6 62.8 314.8 64.9 309.5 C 66.9 304.1 69.0 296.4 70.3 293.2 C 71.6 290.1 72.6 290.9 73.5 288.4 C 74.4 285.9 76.2 279.8 76.2 276.5 C 76.2 273.2 74.4 269.8 73.5 266.2 C 72.6 262.6 71.3 256.4 70.3 252.7 C 69.2 249.0 67.8 245.4 66.5 241.4 C 65.2 237.3 61.5 229.2 61.6 225.7 Z" fill="#b9dcf2"/><clipPath id="lake"><path d="M 61.6 225.7 C 61.7 222.1 65.0 221.0 67.0 217.6 C 69.1 214.1 72.9 207.3 75.1 202.7 C 77.4 198.1 80.2 191.4 81.9 187.0 C 83.6 182.6 85.2 177.7 86.5 173.5 C 87.8 169.3 89.5 165.3 90.5 158.9 C 91.6 152.6 92.1 136.7 93.2 131.1 C 94.3 125.5 96.2 124.5 97.8 121.6 C 99.5 118.7 102.8 114.9 104.3 111.6 C 105.9 108.4 106.8 103.0 108.1 100.0 C 109.4 97.0 111.6 93.9 113.0 91.9 C 114.4 89.9 115.5 89.7 117.6 86.5 C 119.7 83.2 124.1 75.0 127.0 70.3 C 130.0 65.5 132.2 59.2 137.3 54.9 C 142.4 50.5 153.8 43.7 160.8 41.4 C 167.9 39.0 177.7 38.6 184.3 39.2 C 190.9 39.8 199.7 40.2 204.9 45.1 C 210.1 50.1 211.5 62.9 218.9 72.2 C 226.3 81.4 243.1 96.5 254.1 106.8 C 265.0 117.0 280.1 131.7 291.9 140.5 C 303.7 149.4 321.9 157.7 333.0 165.7 C 344.0 173.7 354.3 183.6 365.4 193.8 C 376.5 203.9 396.3 223.1 407.0 233.2 C 417.7 243.4 428.8 255.1 436.8 261.4 C 444.7 267.6 453.4 267.6 460.0 274.9 C 466.6 282.1 474.7 300.2 481.1 309.5 C 487.5 318.7 497.2 329.3 502.7 336.5 C 508.2 343.7 512.9 353.6 517.6 357.6 C 522.2 361.5 527.9 363.0 533.8 363.0 C 539.7 363.0 548.2 362.8 556.8 357.6 C 565.3 352.4 580.9 338.2 590.5 328.4 C 600.2 318.5 611.6 302.2 621.1 291.9 C 630.5 281.6 644.3 269.2 653.5 259.5 C 662.7 249.7 673.9 235.5 682.4 227.0 C 690.9 218.5 702.3 209.5 710.3 202.7 C 718.3 195.9 729.4 186.8 735.7 181.9 C 741.9 177.0 746.3 172.3 751.9 170.3 C 757.5 168.2 766.6 168.1 773.0 168.4 C 779.3 168.7 787.1 169.0 794.1 172.2 C 801.0 175.3 814.3 184.9 819.5 189.5 C 824.6 194.0 826.2 198.2 828.6 202.7 C 831.1 207.2 831.0 214.6 835.7 219.7 C 840.4 224.9 853.7 232.0 860.0 237.0 C 866.3 242.1 873.1 248.9 877.8 253.2 C 882.5 257.6 887.7 264.5 891.4 266.2 C 895.0 268.0 899.3 263.6 902.2 264.9 C 905.0 266.2 908.5 271.5 910.3 274.9 C 912.1 278.2 911.1 282.8 914.1 287.3 C 917.1 291.8 925.4 299.2 930.3 304.6 C 935.1 310.0 941.2 318.0 946.5 323.5 C 951.8 329.0 960.1 336.1 965.4 341.4 C 970.7 346.6 976.5 353.6 981.6 358.6 C 986.7 363.7 995.4 368.4 999.5 374.9 C 1003.5 381.4 1004.0 394.2 1008.6 401.9 C 1013.3 409.6 1026.4 420.9 1030.3 426.2 C 1034.2 431.5 1035.0 434.8 1034.6 437.0 C 1034.2 439.3 1028.0 439.9 1027.6 441.4 C 1027.2 442.8 1036.1 445.8 1031.9 446.8 C 1027.6 447.7 1029.9 447.6 999.2 447.8 C 968.5 448.1 881.2 448.2 827.0 448.6 C 772.8 449.1 688.1 450.3 637.8 450.5 C 587.6 450.8 516.6 449.8 491.9 450.5 C 467.2 451.3 479.5 454.5 473.0 455.4 C 466.5 456.3 456.6 456.3 448.6 456.8 C 440.7 457.2 444.6 458.4 420.3 458.6 C 395.9 458.9 330.3 458.3 286.5 458.1 C 242.7 457.9 154.5 457.9 128.4 457.3 C 102.2 456.7 116.6 455.8 112.2 454.1 C 107.7 452.4 102.7 449.1 98.6 445.9 C 94.6 442.8 89.0 437.3 85.1 433.2 C 81.3 429.2 76.3 422.8 73.0 418.9 C 69.6 415.0 65.5 411.2 62.7 407.3 C 59.9 403.4 56.2 396.9 54.1 392.7 C 51.9 388.5 49.2 383.6 48.1 379.2 C 47.0 374.7 46.3 368.2 46.5 363.0 C 46.6 357.8 47.6 349.7 49.2 344.6 C 50.7 339.5 54.4 334.2 56.8 328.9 C 59.1 323.6 62.8 314.8 64.9 309.5 C 66.9 304.1 69.0 296.4 70.3 293.2 C 71.6 290.1 72.6 290.9 73.5 288.4 C 74.4 285.9 76.2 279.8 76.2 276.5 C 76.2 273.2 74.4 269.8 73.5 266.2 C 72.6 262.6 71.3 256.4 70.3 252.7 C 69.2 249.0 67.8 245.4 66.5 241.4 C 65.2 237.3 61.5 229.2 61.6 225.7 Z"/></clipPath><g clip-path="url(#lake)"><path d="M 140.5 141.9 C 144.7 123.4 151.8 96.2 159.5 85.1 C 167.1 74.1 176.8 73.6 186.5 75.7 C 196.2 77.7 205.4 87.4 217.6 97.3 C 229.7 107.2 243.5 121.6 259.5 135.1 C 275.5 148.6 295.5 162.6 313.5 178.4 C 331.5 194.1 351.4 214.6 367.6 229.7 C 383.8 244.8 396.8 256.1 410.8 268.9 C 424.8 281.8 439.2 295.0 451.4 306.8 C 463.5 318.5 473.9 329.5 483.8 339.2 C 493.7 348.9 501.8 358.6 510.8 364.9 C 519.8 371.1 528.8 377.4 537.8 376.5 C 546.8 375.6 554.5 367.0 564.9 359.5 C 575.2 351.9 589.2 341.0 600.0 331.1 C 610.8 321.2 620.0 310.6 629.7 300.0 C 639.4 289.4 648.2 278.2 658.1 267.6 C 668.0 257.0 678.6 245.5 689.2 236.5 C 699.8 227.5 710.6 218.9 721.6 213.5 C 732.7 208.1 744.4 203.2 755.4 204.1 C 766.4 205.0 779.5 211.5 787.8 218.9 C 796.2 226.4 802.0 237.8 805.4 248.6 C 808.8 259.5 810.6 272.1 808.1 283.8 C 805.6 295.5 799.1 308.3 790.5 318.9 C 782.0 329.5 769.1 339.5 756.8 347.3 C 744.4 355.1 729.7 361.3 716.2 365.7 C 702.7 370.1 689.2 371.7 675.7 373.8 C 662.2 375.9 647.7 375.6 635.1 378.4 C 622.5 381.2 612.6 385.4 600.0 390.5 C 587.4 395.7 572.5 404.3 559.5 409.5 C 546.4 414.6 534.2 420.3 521.6 421.6 C 509.0 423.0 496.8 418.7 483.8 417.6 C 470.7 416.4 457.2 414.6 443.2 414.9 C 429.3 415.1 414.9 417.8 400.0 418.9 C 385.1 420.0 369.4 422.1 354.1 421.6 C 338.7 421.2 323.9 416.4 308.1 416.2 C 292.3 416.1 276.1 421.4 259.5 420.8 C 242.8 420.2 223.9 417.5 208.1 412.7 C 192.3 407.9 175.3 400.8 164.9 391.9 C 154.4 383.0 150.5 372.1 145.4 359.5 C 140.4 346.8 136.8 333.6 134.6 316.2 C 132.3 298.9 131.9 275.5 131.9 255.4 C 131.9 235.4 133.2 214.9 134.6 195.9 C 136.0 177.0 136.4 160.4 140.5 141.9 Z" fill="#7cbde4"/><path d="M 164.9 163.5 C 171.5 150.0 182.4 138.3 191.9 135.1 C 201.4 132.0 209.9 138.3 221.6 144.6 C 233.3 150.9 248.6 162.8 262.2 173.0 C 275.7 183.1 289.2 194.6 302.7 205.4 C 316.2 216.2 330.0 226.4 343.2 237.8 C 356.5 249.3 371.6 262.8 382.4 274.3 C 393.2 285.8 402.7 296.2 408.1 306.8 C 413.5 317.3 417.3 328.4 414.9 337.8 C 412.4 347.3 403.6 357.1 393.2 363.5 C 382.9 370.0 368.2 376.3 352.7 376.5 C 337.2 376.7 317.8 364.8 300.0 364.9 C 282.2 365.0 263.7 377.3 245.9 377.0 C 228.2 376.7 206.7 370.0 193.2 363.0 C 179.8 356.0 172.3 348.6 165.4 335.1 C 158.5 321.7 154.1 302.3 151.9 282.4 C 149.6 262.6 149.7 236.0 151.9 216.2 C 154.1 196.4 158.2 177.0 164.9 163.5 Z" fill="#3f8dc6"/><path d="M 679.7 256.8 C 683.4 245.3 695.3 232.1 705.4 224.3 C 715.5 216.5 729.3 210.6 740.5 210.0 C 751.8 209.4 764.5 214.5 773.0 220.8 C 781.4 227.1 789.2 237.5 791.4 247.8 C 793.5 258.2 792.2 272.7 785.9 283.0 C 779.7 293.2 766.1 304.1 754.1 309.5 C 742.0 314.8 725.3 317.6 713.5 314.9 C 701.7 312.2 688.9 302.9 683.2 293.2 C 677.6 283.6 676.0 268.2 679.7 256.8 Z" fill="#3f8dc6"/><path d="M 174.3 216.2 C 179.2 207.7 194.6 197.4 205.4 196.5 C 216.2 195.6 231.0 204.1 239.2 210.8 C 247.4 217.6 255.7 228.7 254.6 237.0 C 253.5 245.4 241.6 255.9 232.4 260.8 C 223.2 265.7 208.8 268.5 199.5 266.2 C 190.1 264.0 180.4 255.6 176.2 247.3 C 172.0 239.0 169.5 224.7 174.3 216.2 Z" fill="#1f639c"/><path d="M 720.3 250.5 C 723.9 242.5 736.0 230.3 743.8 228.9 C 751.6 227.6 762.7 235.8 767.0 242.4 C 771.4 249.1 773.3 261.4 769.7 268.9 C 766.1 276.5 753.3 286.5 745.4 287.8 C 737.5 289.2 726.4 283.2 722.2 277.0 C 718.0 270.8 716.7 258.6 720.3 250.5 Z" fill="#1f639c"/><path d="M 140.5 141.9 C 144.7 123.4 151.8 96.2 159.5 85.1 C 167.1 74.1 176.8 73.6 186.5 75.7 C 196.2 77.7 205.4 87.4 217.6 97.3 C 229.7 107.2 243.5 121.6 259.5 135.1 C 275.5 148.6 295.5 162.6 313.5 178.4 C 331.5 194.1 351.4 214.6 367.6 229.7 C 383.8 244.8 396.8 256.1 410.8 268.9 C 424.8 281.8 439.2 295.0 451.4 306.8 C 463.5 318.5 473.9 329.5 483.8 339.2 C 493.7 348.9 501.8 358.6 510.8 364.9 C 519.8 371.1 528.8 377.4 537.8 376.5 C 546.8 375.6 554.5 367.0 564.9 359.5 C 575.2 351.9 589.2 341.0 600.0 331.1 C 610.8 321.2 620.0 310.6 629.7 300.0 C 639.4 289.4 648.2 278.2 658.1 267.6 C 668.0 257.0 678.6 245.5 689.2 236.5 C 699.8 227.5 710.6 218.9 721.6 213.5 C 732.7 208.1 744.4 203.2 755.4 204.1 C 766.4 205.0 779.5 211.5 787.8 218.9 C 796.2 226.4 802.0 237.8 805.4 248.6 C 808.8 259.5 810.6 272.1 808.1 283.8 C 805.6 295.5 799.1 308.3 790.5 318.9 C 782.0 329.5 769.1 339.5 756.8 347.3 C 744.4 355.1 729.7 361.3 716.2 365.7 C 702.7 370.1 689.2 371.7 675.7 373.8 C 662.2 375.9 647.7 375.6 635.1 378.4 C 622.5 381.2 612.6 385.4 600.0 390.5 C 587.4 395.7 572.5 404.3 559.5 409.5 C 546.4 414.6 534.2 420.3 521.6 421.6 C 509.0 423.0 496.8 418.7 483.8 417.6 C 470.7 416.4 457.2 414.6 443.2 414.9 C 429.3 415.1 414.9 417.8 400.0 418.9 C 385.1 420.0 369.4 422.1 354.1 421.6 C 338.7 421.2 323.9 416.4 308.1 416.2 C 292.3 416.1 276.1 421.4 259.5 420.8 C 242.8 420.2 223.9 417.5 208.1 412.7 C 192.3 407.9 175.3 400.8 164.9 391.9 C 154.4 383.0 150.5 372.1 145.4 359.5 C 140.4 346.8 136.8 333.6 134.6 316.2 C 132.3 298.9 131.9 275.5 131.9 255.4 C 131.9 235.4 133.2 214.9 134.6 195.9 C 136.0 177.0 136.4 160.4 140.5 141.9 Z" fill="none" stroke="#ffffff" stroke-opacity=".5" stroke-width="1" stroke-dasharray="5 4"/><path d="M 164.9 163.5 C 171.5 150.0 182.4 138.3 191.9 135.1 C 201.4 132.0 209.9 138.3 221.6 144.6 C 233.3 150.9 248.6 162.8 262.2 173.0 C 275.7 183.1 289.2 194.6 302.7 205.4 C 316.2 216.2 330.0 226.4 343.2 237.8 C 356.5 249.3 371.6 262.8 382.4 274.3 C 393.2 285.8 402.7 296.2 408.1 306.8 C 413.5 317.3 417.3 328.4 414.9 337.8 C 412.4 347.3 403.6 357.1 393.2 363.5 C 382.9 370.0 368.2 376.3 352.7 376.5 C 337.2 376.7 317.8 364.8 300.0 364.9 C 282.2 365.0 263.7 377.3 245.9 377.0 C 228.2 376.7 206.7 370.0 193.2 363.0 C 179.8 356.0 172.3 348.6 165.4 335.1 C 158.5 321.7 154.1 302.3 151.9 282.4 C 149.6 262.6 149.7 236.0 151.9 216.2 C 154.1 196.4 158.2 177.0 164.9 163.5 Z" fill="none" stroke="#ffffff" stroke-opacity=".5" stroke-width="1" stroke-dasharray="5 4"/><path d="M 679.7 256.8 C 683.4 245.3 695.3 232.1 705.4 224.3 C 715.5 216.5 729.3 210.6 740.5 210.0 C 751.8 209.4 764.5 214.5 773.0 220.8 C 781.4 227.1 789.2 237.5 791.4 247.8 C 793.5 258.2 792.2 272.7 785.9 283.0 C 779.7 293.2 766.1 304.1 754.1 309.5 C 742.0 314.8 725.3 317.6 713.5 314.9 C 701.7 312.2 688.9 302.9 683.2 293.2 C 677.6 283.6 676.0 268.2 679.7 256.8 Z" fill="none" stroke="#ffffff" stroke-opacity=".5" stroke-width="1" stroke-dasharray="5 4"/><path d="M 174.3 216.2 C 179.2 207.7 194.6 197.4 205.4 196.5 C 216.2 195.6 231.0 204.1 239.2 210.8 C 247.4 217.6 255.7 228.7 254.6 237.0 C 253.5 245.4 241.6 255.9 232.4 260.8 C 223.2 265.7 208.8 268.5 199.5 266.2 C 190.1 264.0 180.4 255.6 176.2 247.3 C 172.0 239.0 169.5 224.7 174.3 216.2 Z" fill="none" stroke="#ffffff" stroke-opacity=".5" stroke-width="1" stroke-dasharray="5 4"/><path d="M 720.3 250.5 C 723.9 242.5 736.0 230.3 743.8 228.9 C 751.6 227.6 762.7 235.8 767.0 242.4 C 771.4 249.1 773.3 261.4 769.7 268.9 C 766.1 276.5 753.3 286.5 745.4 287.8 C 737.5 289.2 726.4 283.2 722.2 277.0 C 718.0 270.8 716.7 258.6 720.3 250.5 Z" fill="none" stroke="#ffffff" stroke-opacity=".5" stroke-width="1" stroke-dasharray="5 4"/><g stroke="#c2451e" stroke-width="3.4" stroke-linecap="round" stroke-linejoin="round" fill="none" opacity="0.9"><path d="M 659.8 214.6 L 661.3 215.9 L 663.6 218.0 L 667.3 221.4 L 671.0 224.6 L 675.6 228.7 L 679.2 232.0 L 682.8 235.2 L 684.8 237.0 L 689.5 241.3 L 694.9 246.3 L 702.3 253.3 L 708.6 259.2 L 715.2 265.5 L 719.2 269.3 L 721.8 271.7"/><path d="M 49.4 286.9 L 51.3 286.7 L 54.1 286.3 L 58.8 285.7 L 63.4 285.1 L 69.5 284.4 L 74.6 283.9 L 80.0 283.4 L 83.5 283.1 L 87.1 282.8 L 89.3 282.7 L 90.7 282.6"/><path d="M 703.8 474.8 L 703.5 472.7 L 703.0 469.4 L 702.2 464.1 L 701.5 459.0 L 699.5 446.1 L 697.1 431.0 L 693.7 409.6 L 690.8 390.9 L 687.7 371.6 L 685.8 359.7 L 684.6 352.2"/><path d="M 297.5 483.0 L 297.2 481.1 L 296.7 478.2 L 296.0 473.4 L 295.3 468.7 L 294.3 462.0 L 293.4 455.9 L 292.3 449.0 L 291.6 444.1 L 289.7 436.1 L 287.4 428.4 L 283.9 418.8 L 280.9 411.6 L 277.8 404.0 L 275.9 399.4 L 274.7 396.4"/><path d="M 62.5 165.9 L 64.4 166.5 L 67.4 167.3 L 72.3 168.7 L 76.9 170.0 L 82.3 171.4 L 86.0 172.5 L 89.1 173.3 L 90.2 173.6 L 92.1 174.4 L 93.9 175.2 L 96.2 176.3 L 97.9 177.2 L 99.7 178.2 L 100.8 178.9 L 101.5 179.2"/><path d="M 377.2 483.6 L 377.2 481.7 L 377.3 478.6 L 377.3 473.5 L 377.3 468.6 L 377.3 463.4 L 377.3 460.0 L 377.3 457.6 L 377.3 457.2 L 377.2 452.9 L 376.9 446.4 L 376.4 436.1 L 376.0 426.4 L 375.6 416.2 L 375.3 410.0 L 375.1 406.1"/><path d="M 601.1 276.5 L 602.7 277.8 L 605.0 279.8 L 608.9 283.0 L 612.7 286.2 L 617.5 290.2 L 621.4 293.4 L 625.3 296.7 L 627.6 298.7 L 631.3 302.2 L 634.7 305.7 L 638.8 310.1 L 641.9 313.6 L 645.1 317.3 L 647.0 319.6 L 648.2 321.0"/><path d="M 950.8 289.9 L 949.3 291.2 L 946.9 293.2 L 943.1 296.5 L 939.4 299.6 L 935.1 303.3 L 932.1 305.9 L 929.5 308.1 L 928.5 309.0 L 926.9 310.2 L 925.4 311.3 L 923.8 312.5 L 922.5 313.3 L 921.3 314.1 L 920.5 314.6 L 920.0 314.9"/><path d="M 511.0 306.6 L 509.4 307.8 L 507.0 309.7 L 503.1 312.9 L 499.3 315.9 L 494.7 319.5 L 491.4 322.2 L 488.5 324.6 L 487.1 325.6 L 483.6 328.4 L 479.4 331.7 L 473.3 336.4 L 468.1 340.5 L 462.7 344.7 L 459.3 347.3 L 457.2 349.0"/><path d="M 999.2 340.6 L 997.8 342.0 L 995.6 344.2 L 992.1 347.9 L 988.7 351.4 L 984.6 355.6 L 981.6 358.6 L 978.9 361.5 L 977.6 362.8 L 975.6 364.9 L 973.9 366.8 L 972.0 369.0 L 970.6 370.7 L 969.2 372.4 L 968.3 373.4 L 967.8 374.0"/><path d="M 445.6 235.1 L 444.2 236.5 L 442.1 238.7 L 438.6 242.4 L 435.2 246.0 L 431.4 250.1 L 428.6 253.0 L 426.2 255.5 L 425.2 256.6 L 420.4 260.9 L 413.9 266.6 L 403.8 275.3 L 394.5 283.3 L 384.9 291.6 L 379.0 296.7 L 375.2 299.9"/><path d="M 852.4 423.4 L 852.4 425.3 L 852.5 428.4 L 852.5 433.5 L 852.5 438.4 L 852.5 444.6 L 852.6 449.6 L 852.6 454.6 L 852.6 457.5 L 852.1 454.4 L 851.4 446.7 L 850.2 432.1 L 849.0 416.9 L 847.8 401.2 L 847.0 391.6 L 846.6 385.4"/><path d="M 386.1 178.7 L 384.7 180.2 L 382.6 182.4 L 379.1 186.1 L 375.8 189.6 L 371.9 193.7 L 369.1 196.6 L 366.8 199.1 L 365.8 200.1 L 363.0 202.6 L 359.5 205.5 L 354.4 209.6 L 349.8 213.2 L 345.1 217.0 L 342.1 219.3 L 340.3 220.7"/><path d="M 481.7 478.7 L 481.5 476.8 L 481.3 473.7 L 480.9 468.7 L 480.5 463.8 L 479.8 454.2 L 479.0 443.9 L 478.0 430.3 L 477.1 419.0 L 476.2 407.3 L 475.6 400.1 L 475.3 395.5"/><path d="M 562.3 319.5 L 563.6 321.0 L 565.6 323.3 L 569.0 327.2 L 572.1 330.9 L 576.1 335.4 L 579.1 338.9 L 582.0 342.2 L 583.5 344.0 L 586.0 346.5 L 588.5 348.6 L 591.6 350.8 L 594.0 352.4 L 596.5 353.9 L 598.0 354.9 L 599.0 355.5"/><path d="M 595.7 475.7 L 595.7 473.7 L 595.7 470.6 L 595.7 465.6 L 595.7 460.7 L 595.7 455.4 L 595.7 451.9 L 595.7 449.3 L 595.7 448.7 L 595.4 443.0 L 594.9 434.7 L 594.2 421.5 L 593.4 409.0 L 592.7 396.1 L 592.2 388.2 L 591.9 383.1"/><path d="M 212.8 482.9 L 212.8 480.9 L 212.8 477.8 L 212.8 472.7 L 212.8 467.9 L 212.9 462.2 L 212.9 458.2 L 212.9 454.7 L 212.9 453.2 L 212.6 450.9 L 212.1 448.7 L 211.3 446.1 L 210.5 444.2 L 209.7 442.2 L 209.2 441.0 L 208.9 440.2"/><path d="M 319.3 127.8 L 318.3 129.5 L 316.7 132.2 L 314.0 136.5 L 311.5 140.6 L 308.5 145.5 L 306.3 149.0 L 304.4 152.1 L 303.6 153.5 L 301.5 155.6 L 298.9 157.6 L 295.3 159.9 L 292.2 161.6 L 288.9 163.4 L 286.9 164.5 L 285.6 165.2"/><path d="M 285.6 165.2 L 282.6 167.9 L 277.9 172.3 L 270.2 179.4 L 262.8 186.2 L 255.2 193.4 L 250.5 197.7 L 247.5 200.5"/><path d="M 101.5 179.2 L 102.1 179.4 L 103.0 179.8 L 104.4 180.3 L 105.8 180.8 L 107.3 181.4 L 108.1 181.7 L 108.7 181.9"/><path d="M 108.7 181.9 L 114.6 184.0 L 123.7 187.2 L 138.8 192.4 L 153.2 197.5 L 168.2 202.7 L 177.4 205.9 L 183.3 208.0"/><path d="M 183.3 208.0 L 185.4 208.6 L 188.7 209.5 L 194.1 211.1 L 199.4 212.5 L 205.0 214.7 L 208.5 216.7 L 211.1 218.9 L 211.5 220.5 L 211.9 222.1 L 212.1 223.1 L 212.3 223.7"/><path d="M 247.5 200.5 L 244.7 202.3 L 240.4 205.2 L 233.3 209.8 L 226.5 214.3 L 219.4 219.0 L 215.0 221.9 L 212.3 223.7"/><path d="M 212.3 223.7 L 212.1 224.2 L 211.7 225.0 L 211.1 226.2 L 210.5 227.5 L 207.3 230.7 L 202.8 234.5 L 195.8 240.0 L 189.4 244.8 L 182.6 249.7 L 178.5 252.8 L 175.9 254.7"/><path d="M 340.3 220.7 L 338.6 221.9 L 335.8 223.7 L 331.3 226.6 L 327.0 229.5 L 319.6 235.4 L 312.3 241.8 L 303.1 250.5 L 295.9 257.7 L 288.4 265.3 L 283.8 269.9 L 280.9 272.8"/><path d="M 175.9 254.7 L 173.1 257.3 L 168.8 261.4 L 161.8 268.2 L 155.0 274.6 L 148.0 281.3 L 143.7 285.4 L 140.9 288.0"/><path d="M 90.7 282.6 L 93.1 282.4 L 96.9 282.1 L 103.1 281.7 L 109.0 281.2 L 116.7 281.4 L 122.9 282.0 L 129.2 283.4 L 133.0 284.9 L 137.0 286.5 L 139.4 287.4 L 140.9 288.0"/><path d="M 140.9 288.0 L 142.9 288.7 L 145.9 289.7 L 150.9 291.4 L 155.6 293.0 L 160.6 294.7 L 163.7 295.8 L 165.6 296.4"/><path d="M 140.9 288.0 L 140.7 288.3 L 140.4 288.6 L 139.9 289.3 L 139.4 289.9 L 139.2 291.5 L 139.3 293.4 L 139.8 296.2 L 140.5 298.6 L 142.2 302.7 L 144.2 306.8 L 147.0 311.9 L 149.4 315.9 L 151.9 320.0 L 153.4 322.5 L 154.4 324.1"/><path d="M 778.5 301.3 L 779.4 300.8 L 780.7 300.0 L 783.0 298.6 L 785.2 297.3 L 788.4 296.0 L 791.2 295.2 L 794.4 294.7 L 796.7 294.7 L 800.1 295.3 L 803.3 296.3 L 807.0 297.9 L 809.7 299.5 L 812.5 301.1 L 814.2 302.1 L 815.3 302.8"/><path d="M 721.8 271.7 L 724.2 273.9 L 727.9 277.3 L 734.0 282.8 L 739.8 288.1 L 746.1 294.3 L 750.2 298.8 L 753.1 302.8 L 753.6 304.5 L 753.5 306.9 L 752.9 308.9 L 751.6 311.1 L 750.1 312.5 L 748.5 314.0 L 747.6 314.9 L 747.0 315.4"/><path d="M 165.6 296.4 L 169.0 297.6 L 174.2 299.4 L 182.9 302.4 L 191.2 305.3 L 199.8 308.3 L 205.1 310.1 L 208.4 311.3"/><path d="M 815.3 302.8 L 816.2 303.5 L 817.5 304.6 L 819.7 306.4 L 821.8 308.1 L 823.9 309.9 L 825.3 311.1 L 826.1 311.8"/><path d="M 778.5 301.3 L 776.0 302.4 L 772.1 304.1 L 765.8 307.0 L 759.7 309.7 L 753.3 312.6 L 749.5 314.3 L 747.0 315.4"/><path d="M 280.9 272.8 L 278.3 275.8 L 274.2 280.5 L 267.6 288.1 L 261.2 295.5 L 254.6 304.2 L 250.5 310.4 L 247.8 315.9 L 247.8 318.3 L 247.7 320.8 L 247.7 322.3 L 247.7 323.3"/><path d="M 208.4 311.3 L 211.5 312.2 L 216.3 313.7 L 224.3 316.1 L 231.9 318.5 L 239.8 320.9 L 244.6 322.3 L 247.7 323.3"/><path d="M 826.1 311.8 L 827.2 313.7 L 828.8 316.8 L 831.5 321.9 L 834.2 326.8 L 836.9 331.8 L 838.5 334.9 L 839.6 336.9"/><path d="M 920.0 314.9 L 918.3 316.6 L 915.5 319.3 L 911.0 323.7 L 906.7 327.9 L 902.3 332.3 L 899.5 335.0 L 897.8 336.7"/><path d="M 747.0 315.4 L 745.6 316.1 L 743.3 317.1 L 739.6 318.8 L 736.0 320.5 L 732.3 322.2 L 730.1 323.2 L 728.6 323.9"/><path d="M 728.6 323.9 L 725.2 326.1 L 719.8 329.6 L 710.9 335.3 L 702.4 340.8 L 693.5 346.5 L 688.1 350.0 L 684.6 352.2"/><path d="M 247.7 323.3 L 254.5 325.0 L 265.1 327.7 L 282.6 332.0 L 299.3 336.2 L 316.8 340.6 L 327.4 343.3 L 334.2 345.0"/><path d="M 247.7 323.3 L 247.8 324.8 L 248.1 327.3 L 248.5 331.3 L 248.9 335.2 L 249.9 340.2 L 250.9 344.1 L 252.4 348.2 L 253.7 350.6 L 255.1 353.1 L 255.9 354.6 L 256.4 355.6"/><path d="M 375.2 299.9 L 372.2 302.9 L 367.5 307.5 L 359.8 315.2 L 352.4 322.5 L 344.4 330.7 L 339.4 336.3 L 335.8 340.7 L 335.3 342.1 L 334.8 343.6 L 334.4 344.4 L 334.2 345.0"/><path d="M 839.6 336.9 L 839.9 338.6 L 840.5 341.3 L 841.4 345.6 L 842.3 349.8 L 843.2 354.1 L 843.7 356.8 L 844.1 358.5"/><path d="M 648.2 321.0 L 651.1 323.4 L 655.6 327.3 L 662.9 333.6 L 669.9 339.6 L 677.3 345.9 L 681.8 349.7 L 684.6 352.2"/><path d="M 897.8 336.7 L 896.1 339.0 L 893.4 342.6 L 889.0 348.6 L 884.8 354.3 L 880.4 360.2 L 877.7 363.8 L 876.0 366.1"/><path d="M 154.4 324.1 L 155.9 327.5 L 158.3 332.7 L 162.3 341.2 L 166.0 349.5 L 169.9 358.0 L 172.3 363.2 L 173.8 366.6"/><path d="M 334.2 345.0 L 336.5 346.0 L 340.1 347.5 L 346.0 350.1 L 351.6 352.5 L 357.5 355.0 L 361.1 356.6 L 363.4 357.6"/><path d="M 363.4 357.6 L 364.4 358.1 L 365.9 358.8 L 368.4 360.1 L 370.8 361.2 L 373.3 362.5 L 374.9 363.2 L 375.8 363.7"/><path d="M 844.1 358.5 L 844.3 360.6 L 844.6 363.9 L 845.1 369.3 L 845.6 374.6 L 846.1 380.0 L 846.4 383.3 L 846.6 385.4"/><path d="M 599.0 355.5 L 599.6 356.2 L 600.6 357.2 L 602.3 358.9 L 604.0 360.5 L 605.8 362.9 L 607.0 364.9 L 608.1 367.3 L 608.4 369.0 L 608.8 370.7 L 609.0 371.7 L 609.1 372.4"/><path d="M 684.6 352.2 L 680.2 353.3 L 673.2 355.0 L 661.8 357.8 L 650.8 360.5 L 639.4 363.3 L 632.4 365.0 L 628.0 366.1"/><path d="M 256.4 355.6 L 257.0 357.0 L 257.9 359.2 L 259.3 362.9 L 260.8 366.4 L 262.2 370.1 L 263.1 372.3 L 263.7 373.8"/><path d="M 375.8 363.7 L 377.4 364.2 L 379.8 364.9 L 383.7 366.1 L 387.5 367.3 L 391.4 368.5 L 393.8 369.2 L 395.3 369.7"/><path d="M 375.8 363.7 L 375.8 367.0 L 375.7 372.3 L 375.5 380.8 L 375.4 389.0 L 375.2 397.6 L 375.2 402.8 L 375.1 406.1"/><path d="M 628.0 366.1 L 627.2 366.4 L 626.0 366.9 L 624.0 367.7 L 622.1 368.4 L 620.0 369.2 L 618.8 369.7 L 618.0 370.0"/><path d="M 173.8 366.6 L 176.0 371.0 L 179.3 377.9 L 184.7 389.2 L 189.9 400.1 L 195.4 411.4 L 198.7 418.3 L 200.8 422.7"/><path d="M 876.0 366.1 L 875.5 366.7 L 874.7 367.7 L 873.4 369.4 L 872.2 370.9 L 871.0 372.6 L 870.2 373.6 L 869.7 374.2"/><path d="M 395.3 369.7 L 398.3 370.5 L 402.9 371.8 L 410.5 373.9 L 417.8 375.9 L 425.4 378.0 L 430.1 379.2 L 433.0 380.0"/><path d="M 457.2 349.0 L 455.5 350.7 L 452.9 353.4 L 448.5 357.9 L 444.4 362.2 L 439.9 367.3 L 436.9 371.1 L 434.7 374.7 L 434.1 376.4 L 433.6 378.2 L 433.3 379.3 L 433.0 380.0"/><path d="M 609.1 372.4 L 609.8 372.2 L 610.9 371.9 L 612.7 371.4 L 614.4 370.9 L 616.2 370.4 L 617.3 370.1 L 618.0 370.0"/><path d="M 609.1 372.4 L 607.8 373.2 L 605.7 374.6 L 602.2 376.7 L 598.9 378.8 L 595.4 381.0 L 593.3 382.3 L 591.9 383.1"/><path d="M 263.7 373.8 L 264.6 375.5 L 265.9 378.3 L 268.1 382.9 L 270.3 387.3 L 272.5 391.9 L 273.8 394.7 L 274.7 396.4"/><path d="M 869.7 374.2 L 869.0 374.9 L 867.9 376.1 L 866.1 378.0 L 864.3 379.8 L 861.4 381.9 L 858.6 383.3 L 855.0 384.4 L 852.3 384.7 L 849.4 385.1 L 847.7 385.3 L 846.6 385.4"/><path d="M 433.0 380.0 L 433.8 380.5 L 435.0 381.2 L 437.0 382.4 L 438.9 383.5 L 440.9 384.7 L 442.2 385.4 L 442.9 385.9"/><path d="M 967.8 374.0 L 966.6 375.5 L 964.7 377.7 L 961.6 381.4 L 958.6 384.9 L 955.6 388.6 L 953.7 390.9 L 952.5 392.3"/><path d="M 442.9 385.9 L 444.2 386.3 L 446.3 386.9 L 449.6 387.9 L 452.8 388.8 L 456.2 389.8 L 458.2 390.4 L 459.6 390.8"/><path d="M 591.9 383.1 L 589.4 384.4 L 585.3 386.4 L 578.7 389.6 L 572.3 392.8 L 565.7 396.0 L 561.6 398.0 L 559.0 399.3"/><path d="M 459.6 390.8 L 460.8 391.2 L 462.7 391.8 L 465.9 392.7 L 468.9 393.6 L 472.1 394.6 L 474.0 395.2 L 475.3 395.5"/><path d="M 475.3 395.5 L 480.3 396.6 L 488.3 398.2 L 501.4 400.9 L 513.9 403.4 L 528.4 405.4 L 538.7 405.8 L 547.6 404.9 L 551.3 403.1 L 555.2 401.2 L 557.5 400.0 L 559.0 399.3"/><path d="M 952.5 392.3 L 951.4 393.7 L 949.8 395.8 L 947.2 399.3 L 944.6 402.7 L 942.0 406.2 L 940.3 408.3 L 939.3 409.7"/><path d="M 939.3 409.7 L 938.8 410.5 L 937.9 411.7 L 936.4 413.7 L 935.0 415.6 L 933.6 417.6 L 932.7 418.8 L 932.1 419.6"/><path d="M 932.1 419.6 L 930.6 421.8 L 928.1 425.2 L 924.1 430.9 L 920.2 436.3 L 915.0 443.6 L 910.8 449.7 L 906.3 456.2 L 903.5 460.3 L 900.6 464.6 L 898.8 467.2 L 897.7 468.9"/><path d="M 200.8 422.7 L 201.4 424.1 L 202.4 426.2 L 204.1 429.8 L 205.6 433.2 L 207.3 436.7 L 208.3 438.9 L 208.9 440.2"/><path d="M 870.6 214.2 L 869.7 216.0 L 868.4 218.8 L 866.2 223.5 L 864.1 227.9 L 861.1 234.5 L 858.3 240.5 L 855.1 247.3 L 852.8 252.2 L 848.8 259.0 L 844.7 264.7 L 839.4 271.0 L 835.3 275.2 L 829.2 280.3 L 823.9 284.2 L 817.9 287.9 L 813.7 289.8 L 808.3 292.0 L 804.0 293.6 L 799.6 294.9 L 797.0 295.4 L 794.2 295.9 L 792.6 296.3 L 791.5 296.5"/></g></g><path d="M 61.6 225.7 C 61.7 222.1 65.0 221.0 67.0 217.6 C 69.1 214.1 72.9 207.3 75.1 202.7 C 77.4 198.1 80.2 191.4 81.9 187.0 C 83.6 182.6 85.2 177.7 86.5 173.5 C 87.8 169.3 89.5 165.3 90.5 158.9 C 91.6 152.6 92.1 136.7 93.2 131.1 C 94.3 125.5 96.2 124.5 97.8 121.6 C 99.5 118.7 102.8 114.9 104.3 111.6 C 105.9 108.4 106.8 103.0 108.1 100.0 C 109.4 97.0 111.6 93.9 113.0 91.9 C 114.4 89.9 115.5 89.7 117.6 86.5 C 119.7 83.2 124.1 75.0 127.0 70.3 C 130.0 65.5 132.2 59.2 137.3 54.9 C 142.4 50.5 153.8 43.7 160.8 41.4 C 167.9 39.0 177.7 38.6 184.3 39.2 C 190.9 39.8 199.7 40.2 204.9 45.1 C 210.1 50.1 211.5 62.9 218.9 72.2 C 226.3 81.4 243.1 96.5 254.1 106.8 C 265.0 117.0 280.1 131.7 291.9 140.5 C 303.7 149.4 321.9 157.7 333.0 165.7 C 344.0 173.7 354.3 183.6 365.4 193.8 C 376.5 203.9 396.3 223.1 407.0 233.2 C 417.7 243.4 428.8 255.1 436.8 261.4 C 444.7 267.6 453.4 267.6 460.0 274.9 C 466.6 282.1 474.7 300.2 481.1 309.5 C 487.5 318.7 497.2 329.3 502.7 336.5 C 508.2 343.7 512.9 353.6 517.6 357.6 C 522.2 361.5 527.9 363.0 533.8 363.0 C 539.7 363.0 548.2 362.8 556.8 357.6 C 565.3 352.4 580.9 338.2 590.5 328.4 C 600.2 318.5 611.6 302.2 621.1 291.9 C 630.5 281.6 644.3 269.2 653.5 259.5 C 662.7 249.7 673.9 235.5 682.4 227.0 C 690.9 218.5 702.3 209.5 710.3 202.7 C 718.3 195.9 729.4 186.8 735.7 181.9 C 741.9 177.0 746.3 172.3 751.9 170.3 C 757.5 168.2 766.6 168.1 773.0 168.4 C 779.3 168.7 787.1 169.0 794.1 172.2 C 801.0 175.3 814.3 184.9 819.5 189.5 C 824.6 194.0 826.2 198.2 828.6 202.7 C 831.1 207.2 831.0 214.6 835.7 219.7 C 840.4 224.9 853.7 232.0 860.0 237.0 C 866.3 242.1 873.1 248.9 877.8 253.2 C 882.5 257.6 887.7 264.5 891.4 266.2 C 895.0 268.0 899.3 263.6 902.2 264.9 C 905.0 266.2 908.5 271.5 910.3 274.9 C 912.1 278.2 911.1 282.8 914.1 287.3 C 917.1 291.8 925.4 299.2 930.3 304.6 C 935.1 310.0 941.2 318.0 946.5 323.5 C 951.8 329.0 960.1 336.1 965.4 341.4 C 970.7 346.6 976.5 353.6 981.6 358.6 C 986.7 363.7 995.4 368.4 999.5 374.9 C 1003.5 381.4 1004.0 394.2 1008.6 401.9 C 1013.3 409.6 1026.4 420.9 1030.3 426.2 C 1034.2 431.5 1035.0 434.8 1034.6 437.0 C 1034.2 439.3 1028.0 439.9 1027.6 441.4 C 1027.2 442.8 1036.1 445.8 1031.9 446.8 C 1027.6 447.7 1029.9 447.6 999.2 447.8 C 968.5 448.1 881.2 448.2 827.0 448.6 C 772.8 449.1 688.1 450.3 637.8 450.5 C 587.6 450.8 516.6 449.8 491.9 450.5 C 467.2 451.3 479.5 454.5 473.0 455.4 C 466.5 456.3 456.6 456.3 448.6 456.8 C 440.7 457.2 444.6 458.4 420.3 458.6 C 395.9 458.9 330.3 458.3 286.5 458.1 C 242.7 457.9 154.5 457.9 128.4 457.3 C 102.2 456.7 116.6 455.8 112.2 454.1 C 107.7 452.4 102.7 449.1 98.6 445.9 C 94.6 442.8 89.0 437.3 85.1 433.2 C 81.3 429.2 76.3 422.8 73.0 418.9 C 69.6 415.0 65.5 411.2 62.7 407.3 C 59.9 403.4 56.2 396.9 54.1 392.7 C 51.9 388.5 49.2 383.6 48.1 379.2 C 47.0 374.7 46.3 368.2 46.5 363.0 C 46.6 357.8 47.6 349.7 49.2 344.6 C 50.7 339.5 54.4 334.2 56.8 328.9 C 59.1 323.6 62.8 314.8 64.9 309.5 C 66.9 304.1 69.0 296.4 70.3 293.2 C 71.6 290.1 72.6 290.9 73.5 288.4 C 74.4 285.9 76.2 279.8 76.2 276.5 C 76.2 273.2 74.4 269.8 73.5 266.2 C 72.6 262.6 71.3 256.4 70.3 252.7 C 69.2 249.0 67.8 245.4 66.5 241.4 C 65.2 237.3 61.5 229.2 61.6 225.7 Z" fill="none" stroke="#2b6a99" stroke-width="2.2"/><defs><marker id="pijlpunt" viewBox="0 0 10 10" refX="8" refY="5" markerWidth="6.5" markerHeight="6.5" orient="auto"><path d="M0 0 L10 5 L0 10 z" fill="#8a3d2f"/></marker></defs><rect x="14.8" y="273.7" width="18" height="12" fill="#8a7f63" stroke="#5b5442" stroke-width="1" rx="1"/><text x="27.0" y="298.6" font-size="10.5" font-style="italic" fill="#5b5442" text-anchor="middle">manege</text><rect x="70.2" y="178.4" width="11" height="8" fill="#8a7f63" stroke="#5b5442" stroke-width="1" rx="1"/><text x="70.8" y="184.1" font-size="10.5" font-style="italic" fill="#5b5442" text-anchor="end">schuilhut</text><rect x="66.9" y="120.5" width="10" height="6" fill="#9a9a8c" stroke="#5b5442" stroke-width="1" rx="1"/><text x="81.6" y="120.3" font-size="10.5" font-style="italic" fill="#5b5442" text-anchor="start">container</text><path d="M 44.9 104.6 L 68.1 117.0" stroke="#8a3d2f" stroke-width="1.8" fill="none" marker-end="url(#pijlpunt)"/><text x="42.2" y="103.0" font-size="10.5" font-weight="700" fill="#8a3d2f" text-anchor="end">ingang</text><rect x="476.8" y="359.1" width="14" height="10" fill="#c9c2ad" stroke="#5b5442" stroke-width="1" rx="1"/><text x="477.8" y="379.2" font-size="10.5" font-style="italic" fill="#123c5e" text-anchor="end">De Dobber (clubhuis)</text><line x1="855.7" y1="241.9" x2="830.3" y2="261.9" stroke="#5b5442" stroke-width="2"/><rect x="821.6" y="258.5" width="13" height="10" fill="#c9c2ad" stroke="#5b5442" stroke-width="1" rx="1"/><text x="823.0" y="279.2" font-size="10.5" font-style="italic" fill="#123c5e" text-anchor="end">TNO-meetstation</text><rect x="1043.2" y="415.8" width="13" height="10" fill="#8a7f63" stroke="#5b5442" stroke-width="1" rx="1"/><text x="1043.2" y="438.6" font-size="10.5" font-style="italic" fill="#5b5442" text-anchor="end">woning</text><rect x="461.0" y="457.2" width="12" height="5" fill="#b0a789" stroke="#5b5442" stroke-width="1" rx="1"/><text x="463.5" y="470.5" font-size="10.5" font-style="italic" fill="#5b5442" text-anchor="end">brug</text><path d="M 475.1 480.3 L 482.2 458.1" stroke="#8a3d2f" stroke-width="1.8" fill="none" marker-end="url(#pijlpunt)"/><text x="473.0" y="484.6" font-size="10.5" font-weight="700" fill="#8a3d2f" text-anchor="end">ingang</text><path d="M 113.0 480.3 L 124.3 460.3" stroke="#8a3d2f" stroke-width="1.8" fill="none" marker-end="url(#pijlpunt)"/><text x="110.3" y="484.6" font-size="10.5" font-weight="700" fill="#8a3d2f" text-anchor="end">ingang</text><g text-anchor="middle" font-weight="800"><circle cx="191.9" cy="125.9" r="11.5" fill="#ffffff" fill-opacity="0.88" stroke="#c2451e" stroke-width="2"/><text x="191.9" y="130.9" font-size="14.5" fill="#9a3413">A</text><circle cx="227.6" cy="268.1" r="11.5" fill="#ffffff" fill-opacity="0.88" stroke="#c2451e" stroke-width="2"/><text x="227.6" y="273.1" font-size="14.5" fill="#9a3413">B</text><circle cx="338.0" cy="276.8" r="11.5" fill="#ffffff" fill-opacity="0.88" stroke="#c2451e" stroke-width="2"/><text x="338.0" y="281.8" font-size="14.5" fill="#9a3413">C</text><circle cx="422.3" cy="319.3" r="11.5" fill="#ffffff" fill-opacity="0.88" stroke="#c2451e" stroke-width="2"/><text x="422.3" y="324.3" font-size="14.5" fill="#9a3413">D</text><circle cx="517.3" cy="357.7" r="11.5" fill="#ffffff" fill-opacity="0.88" stroke="#c2451e" stroke-width="2"/><text x="517.3" y="362.7" font-size="14.5" fill="#9a3413">E</text><circle cx="624.3" cy="334.6" r="11.5" fill="#ffffff" fill-opacity="0.88" stroke="#c2451e" stroke-width="2"/><text x="624.3" y="339.6" font-size="14.5" fill="#9a3413">F</text><circle cx="684.5" cy="292.4" r="11.5" fill="#ffffff" fill-opacity="0.88" stroke="#c2451e" stroke-width="2"/><text x="684.5" y="297.4" font-size="14.5" fill="#9a3413">G</text><circle cx="775.7" cy="232.0" r="11.5" fill="#ffffff" fill-opacity="0.88" stroke="#c2451e" stroke-width="2"/><text x="775.7" y="237.0" font-size="14.5" fill="#9a3413">H</text><circle cx="872.3" cy="300.2" r="11.5" fill="#ffffff" fill-opacity="0.88" stroke="#c2451e" stroke-width="2"/><text x="872.3" y="305.2" font-size="14.5" fill="#9a3413">I</text><circle cx="904.5" cy="390.8" r="11.5" fill="#ffffff" fill-opacity="0.88" stroke="#c2451e" stroke-width="2"/><text x="904.5" y="395.8" font-size="14.5" fill="#9a3413">J</text><circle cx="989.1" cy="418.0" r="11.5" fill="#ffffff" fill-opacity="0.88" stroke="#c2451e" stroke-width="2"/><text x="989.1" y="423.0" font-size="14.5" fill="#9a3413">K</text><circle cx="777.6" cy="389.8" r="11.5" fill="#ffffff" fill-opacity="0.88" stroke="#c2451e" stroke-width="2"/><text x="777.6" y="394.8" font-size="14.5" fill="#9a3413">L</text><circle cx="646.2" cy="412.7" r="11.5" fill="#ffffff" fill-opacity="0.88" stroke="#c2451e" stroke-width="2"/><text x="646.2" y="417.7" font-size="14.5" fill="#9a3413">M</text><circle cx="531.5" cy="429.9" r="11.5" fill="#ffffff" fill-opacity="0.88" stroke="#c2451e" stroke-width="2"/><text x="531.5" y="434.9" font-size="14.5" fill="#9a3413">N</text><circle cx="423.5" cy="419.2" r="11.5" fill="#ffffff" fill-opacity="0.88" stroke="#c2451e" stroke-width="2"/><text x="423.5" y="424.2" font-size="14.5" fill="#9a3413">O</text><circle cx="324.8" cy="398.3" r="11.5" fill="#ffffff" fill-opacity="0.88" stroke="#c2451e" stroke-width="2"/><text x="324.8" y="403.3" font-size="14.5" fill="#9a3413">P</text><circle cx="224.6" cy="382.8" r="11.5" fill="#ffffff" fill-opacity="0.88" stroke="#c2451e" stroke-width="2"/><text x="224.6" y="387.8" font-size="14.5" fill="#9a3413">Q</text><circle cx="117.4" cy="390.1" r="11.5" fill="#ffffff" fill-opacity="0.88" stroke="#c2451e" stroke-width="2"/><text x="117.4" y="395.1" font-size="14.5" fill="#9a3413">R</text><circle cx="115.3" cy="232.4" r="11.5" fill="#ffffff" fill-opacity="0.88" stroke="#c2451e" stroke-width="2"/><text x="115.3" y="237.4" font-size="14.5" fill="#9a3413">S</text></g><g font-size="8.2"><circle cx="78.2" cy="128.1" r="6" fill="#ffffff" stroke="#1d4e79" stroke-width="0.8" opacity="0.25"/><text x="78.2" y="130.7" fill="#123c5e" text-anchor="middle" opacity="0.25" font-size="7">1</text><line x1="105.4" y1="108.6" x2="90.4" y2="105.6" stroke="#1d4e79" stroke-width="0.8"/><circle cx="90.4" cy="105.6" r="7.8" fill="#2e7d32" stroke="#1b5e20" stroke-width="1.2"/><text x="90.4" y="108.4" fill="#ffffff" font-weight="700" text-anchor="middle">3</text><circle cx="102.6" cy="83.5" r="6" fill="#ffffff" stroke="#1d4e79" stroke-width="0.8" opacity="0.25"/><text x="102.6" y="86.1" fill="#123c5e" text-anchor="middle" opacity="0.25" font-size="7">5</text><circle cx="122.3" cy="52.9" r="6" fill="#ffffff" stroke="#1d4e79" stroke-width="0.8" opacity="0.25"/><text x="122.3" y="55.5" fill="#123c5e" text-anchor="middle" opacity="0.25" font-size="7">7</text><circle cx="48.2" cy="229.8" r="6" fill="#ffffff" stroke="#1d4e79" stroke-width="0.8" opacity="0.25"/><text x="48.2" y="232.4" fill="#123c5e" text-anchor="middle" opacity="0.25" font-size="7">2</text><circle cx="52.5" cy="244.4" r="6" fill="#ffffff" stroke="#1d4e79" stroke-width="0.8" opacity="0.25"/><text x="52.5" y="247.0" fill="#123c5e" text-anchor="middle" opacity="0.25" font-size="7">4</text><line x1="70.0" y1="251.9" x2="56.0" y2="254.9" stroke="#1d4e79" stroke-width="0.8"/><circle cx="56.0" cy="254.9" r="7.8" fill="#2e7d32" stroke="#1b5e20" stroke-width="1.2"/><text x="56.0" y="257.7" fill="#ffffff" font-weight="700" text-anchor="middle">6</text><circle cx="59.2" cy="265.7" r="6" fill="#ffffff" stroke="#1d4e79" stroke-width="0.8" opacity="0.25"/><text x="59.2" y="268.3" fill="#123c5e" text-anchor="middle" opacity="0.25" font-size="7">8</text><circle cx="61.7" cy="275.2" r="6" fill="#ffffff" stroke="#1d4e79" stroke-width="0.8" opacity="0.25"/><text x="61.7" y="277.8" fill="#123c5e" text-anchor="middle" opacity="0.25" font-size="7">10</text><circle cx="228.9" cy="61.2" r="6" fill="#ffffff" stroke="#1d4e79" stroke-width="0.8" opacity="0.25"/><text x="228.9" y="63.8" fill="#123c5e" text-anchor="middle" opacity="0.25" font-size="7">9</text><circle cx="240.1" cy="72.2" r="6" fill="#ffffff" stroke="#1d4e79" stroke-width="0.8" opacity="0.25"/><text x="240.1" y="74.8" fill="#123c5e" text-anchor="middle" opacity="0.25" font-size="7">11</text><circle cx="252.9" cy="84.7" r="6" fill="#ffffff" stroke="#1d4e79" stroke-width="0.8" opacity="0.25"/><text x="252.9" y="87.3" fill="#123c5e" text-anchor="middle" opacity="0.25" font-size="7">13</text><circle cx="264.1" cy="95.8" r="6" fill="#ffffff" stroke="#1d4e79" stroke-width="0.8" opacity="0.25"/><text x="264.1" y="98.4" fill="#123c5e" text-anchor="middle" opacity="0.25" font-size="7">15</text><circle cx="277.2" cy="107.5" r="6" fill="#ffffff" stroke="#1d4e79" stroke-width="0.8" opacity="0.25"/><text x="277.2" y="110.1" fill="#123c5e" text-anchor="middle" opacity="0.25" font-size="7">17</text><circle cx="288.7" cy="117.8" r="6" fill="#ffffff" stroke="#1d4e79" stroke-width="0.8" opacity="0.25"/><text x="288.7" y="120.4" fill="#123c5e" text-anchor="middle" opacity="0.25" font-size="7">19</text><circle cx="301.9" cy="129.5" r="6" fill="#ffffff" stroke="#1d4e79" stroke-width="0.8" opacity="0.25"/><text x="301.9" y="132.1" fill="#123c5e" text-anchor="middle" opacity="0.25" font-size="7">21</text><circle cx="316.8" cy="138.7" r="6" fill="#ffffff" stroke="#1d4e79" stroke-width="0.8" opacity="0.25"/><text x="316.8" y="141.3" fill="#123c5e" text-anchor="middle" opacity="0.25" font-size="7">23</text><circle cx="329.9" cy="146.7" r="6" fill="#ffffff" stroke="#1d4e79" stroke-width="0.8" opacity="0.25"/><text x="329.9" y="149.3" fill="#123c5e" text-anchor="middle" opacity="0.25" font-size="7">25</text><line x1="334.7" y1="167.2" x2="344.7" y2="156.2" stroke="#1d4e79" stroke-width="0.8"/><circle cx="344.7" cy="156.2" r="7.8" fill="#2e7d32" stroke="#1b5e20" stroke-width="1.2"/><text x="344.7" y="159.0" fill="#ffffff" font-weight="700" text-anchor="middle">27</text><circle cx="356.6" cy="166.5" r="6" fill="#ffffff" stroke="#1d4e79" stroke-width="0.8" opacity="0.25"/><text x="356.6" y="169.1" fill="#123c5e" text-anchor="middle" opacity="0.25" font-size="7">29</text><circle cx="368.6" cy="176.9" r="6" fill="#ffffff" stroke="#1d4e79" stroke-width="0.8" opacity="0.25"/><text x="368.6" y="179.5" fill="#123c5e" text-anchor="middle" opacity="0.25" font-size="7">31</text><circle cx="381.8" cy="188.9" r="6" fill="#ffffff" stroke="#1d4e79" stroke-width="0.8" opacity="0.25"/><text x="381.8" y="191.5" fill="#123c5e" text-anchor="middle" opacity="0.25" font-size="7">33</text><circle cx="393.0" cy="199.5" r="6" fill="#ffffff" stroke="#1d4e79" stroke-width="0.8" opacity="0.25"/><text x="393.0" y="202.1" fill="#123c5e" text-anchor="middle" opacity="0.25" font-size="7">35</text><line x1="395.8" y1="222.6" x2="405.8" y2="211.6" stroke="#1d4e79" stroke-width="0.8"/><circle cx="405.8" cy="211.6" r="7.8" fill="#2e7d32" stroke="#1b5e20" stroke-width="1.2"/><text x="405.8" y="214.4" fill="#ffffff" font-weight="700" text-anchor="middle">37</text><circle cx="418.7" cy="223.8" r="6" fill="#ffffff" stroke="#1d4e79" stroke-width="0.8" opacity="0.25"/><text x="418.7" y="226.4" fill="#123c5e" text-anchor="middle" opacity="0.25" font-size="7">39</text><circle cx="430.2" cy="234.7" r="6" fill="#ffffff" stroke="#1d4e79" stroke-width="0.8" opacity="0.25"/><text x="430.2" y="237.3" fill="#123c5e" text-anchor="middle" opacity="0.25" font-size="7">41</text><circle cx="441.8" cy="245.7" r="6" fill="#ffffff" stroke="#1d4e79" stroke-width="0.8" opacity="0.25"/><text x="441.8" y="248.3" fill="#123c5e" text-anchor="middle" opacity="0.25" font-size="7">43</text><circle cx="456.4" cy="256.0" r="6" fill="#ffffff" stroke="#1d4e79" stroke-width="0.8" opacity="0.25"/><text x="456.4" y="258.6" fill="#123c5e" text-anchor="middle" opacity="0.25" font-size="7">45</text><line x1="460.0" y1="274.9" x2="470.0" y2="263.9" stroke="#1d4e79" stroke-width="0.8"/><circle cx="470.0" cy="263.9" r="7.8" fill="#2e7d32" stroke="#1b5e20" stroke-width="1.2"/><text x="470.0" y="266.7" fill="#ffffff" font-weight="700" text-anchor="middle">47</text><circle cx="494.4" cy="302.0" r="6" fill="#ffffff" stroke="#1d4e79" stroke-width="0.8" opacity="0.25"/><text x="494.4" y="304.6" fill="#123c5e" text-anchor="middle" opacity="0.25" font-size="7">49</text><circle cx="514.7" cy="327.9" r="6" fill="#ffffff" stroke="#1d4e79" stroke-width="0.8" opacity="0.25"/><text x="514.7" y="330.5" fill="#123c5e" text-anchor="middle" opacity="0.25" font-size="7">51</text><circle cx="528.8" cy="346.3" r="6" fill="#ffffff" stroke="#1d4e79" stroke-width="0.8" opacity="0.25"/><text x="528.8" y="348.9" fill="#123c5e" text-anchor="middle" opacity="0.25" font-size="7">53</text><line x1="541.9" y1="362.2" x2="545.9" y2="377.2" stroke="#1d4e79" stroke-width="0.8"/><circle cx="545.9" cy="377.2" r="7.8" fill="#2e7d32" stroke="#1b5e20" stroke-width="1.2"/><text x="545.9" y="380.0" fill="#ffffff" font-weight="700" text-anchor="middle">55</text><circle cx="558.3" cy="336.9" r="6" fill="#ffffff" stroke="#1d4e79" stroke-width="0.8" opacity="0.25"/><text x="558.3" y="339.5" fill="#123c5e" text-anchor="middle" opacity="0.25" font-size="7">57</text><circle cx="575.2" cy="322.3" r="6" fill="#ffffff" stroke="#1d4e79" stroke-width="0.8" opacity="0.25"/><text x="575.2" y="324.9" fill="#123c5e" text-anchor="middle" opacity="0.25" font-size="7">59</text><line x1="603.0" y1="313.5" x2="591.0" y2="304.5" stroke="#1d4e79" stroke-width="0.8"/><circle cx="591.0" cy="304.5" r="7.8" fill="#2e7d32" stroke="#1b5e20" stroke-width="1.2"/><text x="591.0" y="307.3" fill="#ffffff" font-weight="700" text-anchor="middle">61</text><circle cx="606.3" cy="286.2" r="6" fill="#ffffff" stroke="#1d4e79" stroke-width="0.8" opacity="0.25"/><text x="606.3" y="288.8" fill="#123c5e" text-anchor="middle" opacity="0.25" font-size="7">63</text><line x1="633.4" y1="279.5" x2="621.4" y2="270.5" stroke="#1d4e79" stroke-width="0.8"/><circle cx="621.4" cy="270.5" r="7.8" fill="#2e7d32" stroke="#1b5e20" stroke-width="1.2"/><text x="621.4" y="273.3" fill="#ffffff" font-weight="700" text-anchor="middle">65</text><circle cx="638.4" cy="253.5" r="6" fill="#ffffff" stroke="#1d4e79" stroke-width="0.8" opacity="0.25"/><text x="638.4" y="256.1" fill="#123c5e" text-anchor="middle" opacity="0.25" font-size="7">67</text><circle cx="654.5" cy="235.9" r="6" fill="#ffffff" stroke="#1d4e79" stroke-width="0.8" opacity="0.25"/><text x="654.5" y="238.5" fill="#123c5e" text-anchor="middle" opacity="0.25" font-size="7">69</text><circle cx="669.0" cy="219.6" r="6" fill="#ffffff" stroke="#1d4e79" stroke-width="0.8" opacity="0.25"/><text x="669.0" y="222.2" fill="#123c5e" text-anchor="middle" opacity="0.25" font-size="7">71</text><circle cx="686.8" cy="203.7" r="6" fill="#ffffff" stroke="#1d4e79" stroke-width="0.8" opacity="0.25"/><text x="686.8" y="206.3" fill="#123c5e" text-anchor="middle" opacity="0.25" font-size="7">73</text><line x1="715.4" y1="198.5" x2="703.4" y2="189.5" stroke="#1d4e79" stroke-width="0.8"/><circle cx="703.4" cy="189.5" r="7.8" fill="#2e7d32" stroke="#1b5e20" stroke-width="1.2"/><text x="703.4" y="192.3" fill="#ffffff" font-weight="700" text-anchor="middle">75</text><circle cx="722.0" cy="174.3" r="6" fill="#ffffff" stroke="#1d4e79" stroke-width="0.8" opacity="0.25"/><text x="722.0" y="176.9" fill="#123c5e" text-anchor="middle" opacity="0.25" font-size="7">77</text><circle cx="843.9" cy="202.8" r="6" fill="#ffffff" stroke="#1d4e79" stroke-width="0.8" opacity="0.25"/><text x="843.9" y="205.4" fill="#123c5e" text-anchor="middle" opacity="0.25" font-size="7">79</text><circle cx="872.0" cy="229.0" r="6" fill="#ffffff" stroke="#1d4e79" stroke-width="0.8" opacity="0.25"/><text x="872.0" y="231.6" fill="#123c5e" text-anchor="middle" opacity="0.25" font-size="7">81</text><circle cx="889.8" cy="245.2" r="6" fill="#ffffff" stroke="#1d4e79" stroke-width="0.8" opacity="0.25"/><text x="889.8" y="247.8" fill="#123c5e" text-anchor="middle" opacity="0.25" font-size="7">83</text><line x1="892.7" y1="267.0" x2="904.7" y2="259.0" stroke="#1d4e79" stroke-width="0.8"/><circle cx="904.7" cy="259.0" r="7.8" fill="#2e7d32" stroke="#1b5e20" stroke-width="1.2"/><text x="904.7" y="261.8" fill="#ffffff" font-weight="700" text-anchor="middle">85</text><circle cx="926.1" cy="279.3" r="6" fill="#ffffff" stroke="#1d4e79" stroke-width="0.8" opacity="0.25"/><text x="926.1" y="281.9" fill="#123c5e" text-anchor="middle" opacity="0.25" font-size="7">87</text><circle cx="942.3" cy="296.6" r="6" fill="#ffffff" stroke="#1d4e79" stroke-width="0.8" opacity="0.25"/><text x="942.3" y="299.2" fill="#123c5e" text-anchor="middle" opacity="0.25" font-size="7">89</text><line x1="946.5" y1="323.5" x2="958.5" y2="315.5" stroke="#1d4e79" stroke-width="0.8"/><circle cx="958.5" cy="315.5" r="7.8" fill="#2e7d32" stroke="#1b5e20" stroke-width="1.2"/><text x="958.5" y="318.3" fill="#ffffff" font-weight="700" text-anchor="middle">91</text><circle cx="977.4" cy="333.4" r="6" fill="#ffffff" stroke="#1d4e79" stroke-width="0.8" opacity="0.25"/><text x="977.4" y="336.0" fill="#123c5e" text-anchor="middle" opacity="0.25" font-size="7">93</text><circle cx="993.6" cy="350.6" r="6" fill="#ffffff" stroke="#1d4e79" stroke-width="0.8" opacity="0.25"/><text x="993.6" y="353.2" fill="#123c5e" text-anchor="middle" opacity="0.25" font-size="7">95</text><circle cx="1011.5" cy="367.7" r="6" fill="#ffffff" stroke="#1d4e79" stroke-width="0.8" opacity="0.25"/><text x="1011.5" y="370.3" fill="#123c5e" text-anchor="middle" opacity="0.25" font-size="7">97</text><line x1="1008.6" y1="401.9" x2="1020.6" y2="393.9" stroke="#1d4e79" stroke-width="0.8"/><circle cx="1020.6" cy="393.9" r="7.8" fill="#2e7d32" stroke="#1b5e20" stroke-width="1.2"/><text x="1020.6" y="396.7" fill="#ffffff" font-weight="700" text-anchor="middle">99</text><circle cx="491.9" cy="465.5" r="6" fill="#ffffff" stroke="#1d4e79" stroke-width="0.8" opacity="0.25"/><text x="491.9" y="468.1" fill="#123c5e" text-anchor="middle" opacity="0.25" font-size="7">54</text><circle cx="513.9" cy="465.5" r="6" fill="#ffffff" stroke="#1d4e79" stroke-width="0.8" opacity="0.25"/><text x="513.9" y="468.1" fill="#123c5e" text-anchor="middle" opacity="0.25" font-size="7">56</text><line x1="536.0" y1="449.5" x2="536.0" y2="465.5" stroke="#1d4e79" stroke-width="0.8"/><circle cx="536.0" cy="465.5" r="7.8" fill="#2e7d32" stroke="#1b5e20" stroke-width="1.2"/><text x="536.0" y="468.3" fill="#ffffff" font-weight="700" text-anchor="middle">58</text><circle cx="558.1" cy="465.5" r="6" fill="#ffffff" stroke="#1d4e79" stroke-width="0.8" opacity="0.25"/><text x="558.1" y="468.1" fill="#123c5e" text-anchor="middle" opacity="0.25" font-size="7">60</text><circle cx="580.1" cy="465.5" r="6" fill="#ffffff" stroke="#1d4e79" stroke-width="0.8" opacity="0.25"/><text x="580.1" y="468.1" fill="#123c5e" text-anchor="middle" opacity="0.25" font-size="7">62</text><circle cx="602.2" cy="465.5" r="6" fill="#ffffff" stroke="#1d4e79" stroke-width="0.8" opacity="0.25"/><text x="602.2" y="468.1" fill="#123c5e" text-anchor="middle" opacity="0.25" font-size="7">64</text><circle cx="624.2" cy="465.5" r="6" fill="#ffffff" stroke="#1d4e79" stroke-width="0.8" opacity="0.25"/><text x="624.2" y="468.1" fill="#123c5e" text-anchor="middle" opacity="0.25" font-size="7">66</text><line x1="646.3" y1="449.5" x2="646.3" y2="465.5" stroke="#1d4e79" stroke-width="0.8"/><circle cx="646.3" cy="465.5" r="7.8" fill="#2e7d32" stroke="#1b5e20" stroke-width="1.2"/><text x="646.3" y="468.3" fill="#ffffff" font-weight="700" text-anchor="middle">68</text><circle cx="668.3" cy="465.5" r="6" fill="#ffffff" stroke="#1d4e79" stroke-width="0.8" opacity="0.25"/><text x="668.3" y="468.1" fill="#123c5e" text-anchor="middle" opacity="0.25" font-size="7">70</text><circle cx="690.4" cy="465.5" r="6" fill="#ffffff" stroke="#1d4e79" stroke-width="0.8" opacity="0.25"/><text x="690.4" y="468.1" fill="#123c5e" text-anchor="middle" opacity="0.25" font-size="7">72</text><circle cx="712.5" cy="465.5" r="6" fill="#ffffff" stroke="#1d4e79" stroke-width="0.8" opacity="0.25"/><text x="712.5" y="468.1" fill="#123c5e" text-anchor="middle" opacity="0.25" font-size="7">74</text><line x1="734.5" y1="449.5" x2="734.5" y2="465.5" stroke="#1d4e79" stroke-width="0.8"/><circle cx="734.5" cy="465.5" r="7.8" fill="#2e7d32" stroke="#1b5e20" stroke-width="1.2"/><text x="734.5" y="468.3" fill="#ffffff" font-weight="700" text-anchor="middle">76</text><line x1="756.6" y1="449.5" x2="756.6" y2="465.5" stroke="#1d4e79" stroke-width="0.8"/><circle cx="756.6" cy="465.5" r="7.8" fill="#2e7d32" stroke="#1b5e20" stroke-width="1.2"/><text x="756.6" y="468.3" fill="#ffffff" font-weight="700" text-anchor="middle">78</text><circle cx="778.6" cy="465.5" r="6" fill="#ffffff" stroke="#1d4e79" stroke-width="0.8" opacity="0.25"/><text x="778.6" y="468.1" fill="#123c5e" text-anchor="middle" opacity="0.25" font-size="7">80</text><circle cx="800.7" cy="465.5" r="6" fill="#ffffff" stroke="#1d4e79" stroke-width="0.8" opacity="0.25"/><text x="800.7" y="468.1" fill="#123c5e" text-anchor="middle" opacity="0.25" font-size="7">82</text><circle cx="822.7" cy="465.5" r="6" fill="#ffffff" stroke="#1d4e79" stroke-width="0.8" opacity="0.25"/><text x="822.7" y="468.1" fill="#123c5e" text-anchor="middle" opacity="0.25" font-size="7">84</text><circle cx="844.8" cy="465.5" r="6" fill="#ffffff" stroke="#1d4e79" stroke-width="0.8" opacity="0.25"/><text x="844.8" y="468.1" fill="#123c5e" text-anchor="middle" opacity="0.25" font-size="7">86</text><circle cx="866.9" cy="465.5" r="6" fill="#ffffff" stroke="#1d4e79" stroke-width="0.8" opacity="0.25"/><text x="866.9" y="468.1" fill="#123c5e" text-anchor="middle" opacity="0.25" font-size="7">88</text><circle cx="888.9" cy="465.5" r="6" fill="#ffffff" stroke="#1d4e79" stroke-width="0.8" opacity="0.25"/><text x="888.9" y="468.1" fill="#123c5e" text-anchor="middle" opacity="0.25" font-size="7">90</text><circle cx="911.0" cy="465.5" r="6" fill="#ffffff" stroke="#1d4e79" stroke-width="0.8" opacity="0.25"/><text x="911.0" y="468.1" fill="#123c5e" text-anchor="middle" opacity="0.25" font-size="7">92</text><circle cx="933.0" cy="465.5" r="6" fill="#ffffff" stroke="#1d4e79" stroke-width="0.8" opacity="0.25"/><text x="933.0" y="468.1" fill="#123c5e" text-anchor="middle" opacity="0.25" font-size="7">94</text><circle cx="955.1" cy="465.5" r="6" fill="#ffffff" stroke="#1d4e79" stroke-width="0.8" opacity="0.25"/><text x="955.1" y="468.1" fill="#123c5e" text-anchor="middle" opacity="0.25" font-size="7">96</text><circle cx="977.1" cy="465.5" r="6" fill="#ffffff" stroke="#1d4e79" stroke-width="0.8" opacity="0.25"/><text x="977.1" y="468.1" fill="#123c5e" text-anchor="middle" opacity="0.25" font-size="7">98</text><circle cx="999.2" cy="465.5" r="6" fill="#ffffff" stroke="#1d4e79" stroke-width="0.8" opacity="0.25"/><text x="999.2" y="468.1" fill="#123c5e" text-anchor="middle" opacity="0.25" font-size="7">100</text><circle cx="128.4" cy="473.8" r="6" fill="#ffffff" stroke="#1d4e79" stroke-width="0.8" opacity="0.25"/><text x="128.4" y="476.4" fill="#123c5e" text-anchor="middle" opacity="0.25" font-size="7">20</text><circle cx="146.6" cy="473.8" r="6" fill="#ffffff" stroke="#1d4e79" stroke-width="0.8" opacity="0.25"/><text x="146.6" y="476.4" fill="#123c5e" text-anchor="middle" opacity="0.25" font-size="7">22</text><line x1="164.9" y1="457.8" x2="164.9" y2="473.8" stroke="#1d4e79" stroke-width="0.8"/><circle cx="164.9" cy="473.8" r="7.8" fill="#2e7d32" stroke="#1b5e20" stroke-width="1.2"/><text x="164.9" y="476.6" fill="#ffffff" font-weight="700" text-anchor="middle">24</text><line x1="183.1" y1="457.8" x2="183.1" y2="473.8" stroke="#1d4e79" stroke-width="0.8"/><circle cx="183.1" cy="473.8" r="7.8" fill="#2e7d32" stroke="#1b5e20" stroke-width="1.2"/><text x="183.1" y="476.6" fill="#ffffff" font-weight="700" text-anchor="middle">26</text><circle cx="201.4" cy="473.8" r="6" fill="#ffffff" stroke="#1d4e79" stroke-width="0.8" opacity="0.25"/><text x="201.4" y="476.4" fill="#123c5e" text-anchor="middle" opacity="0.25" font-size="7">28</text><circle cx="219.6" cy="473.8" r="6" fill="#ffffff" stroke="#1d4e79" stroke-width="0.8" opacity="0.25"/><text x="219.6" y="476.4" fill="#123c5e" text-anchor="middle" opacity="0.25" font-size="7">30</text><circle cx="237.8" cy="473.8" r="6" fill="#ffffff" stroke="#1d4e79" stroke-width="0.8" opacity="0.25"/><text x="237.8" y="476.4" fill="#123c5e" text-anchor="middle" opacity="0.25" font-size="7">32</text><line x1="256.1" y1="457.8" x2="256.1" y2="473.8" stroke="#1d4e79" stroke-width="0.8"/><circle cx="256.1" cy="473.8" r="7.8" fill="#2e7d32" stroke="#1b5e20" stroke-width="1.2"/><text x="256.1" y="476.6" fill="#ffffff" font-weight="700" text-anchor="middle">34</text><circle cx="274.3" cy="473.8" r="6" fill="#ffffff" stroke="#1d4e79" stroke-width="0.8" opacity="0.25"/><text x="274.3" y="476.4" fill="#123c5e" text-anchor="middle" opacity="0.25" font-size="7">36</text><circle cx="292.6" cy="473.8" r="6" fill="#ffffff" stroke="#1d4e79" stroke-width="0.8" opacity="0.25"/><text x="292.6" y="476.4" fill="#123c5e" text-anchor="middle" opacity="0.25" font-size="7">38</text><line x1="310.8" y1="457.8" x2="310.8" y2="473.8" stroke="#1d4e79" stroke-width="0.8"/><circle cx="310.8" cy="473.8" r="7.8" fill="#2e7d32" stroke="#1b5e20" stroke-width="1.2"/><text x="310.8" y="476.6" fill="#ffffff" font-weight="700" text-anchor="middle">40</text><line x1="329.1" y1="457.8" x2="329.1" y2="473.8" stroke="#1d4e79" stroke-width="0.8"/><circle cx="329.1" cy="473.8" r="7.8" fill="#2e7d32" stroke="#1b5e20" stroke-width="1.2"/><text x="329.1" y="476.6" fill="#ffffff" font-weight="700" text-anchor="middle">42</text><circle cx="347.3" cy="473.8" r="6" fill="#ffffff" stroke="#1d4e79" stroke-width="0.8" opacity="0.25"/><text x="347.3" y="476.4" fill="#123c5e" text-anchor="middle" opacity="0.25" font-size="7">44</text><circle cx="365.5" cy="473.8" r="6" fill="#ffffff" stroke="#1d4e79" stroke-width="0.8" opacity="0.25"/><text x="365.5" y="476.4" fill="#123c5e" text-anchor="middle" opacity="0.25" font-size="7">46</text><circle cx="383.8" cy="473.8" r="6" fill="#ffffff" stroke="#1d4e79" stroke-width="0.8" opacity="0.25"/><text x="383.8" y="476.4" fill="#123c5e" text-anchor="middle" opacity="0.25" font-size="7">48</text><line x1="402.0" y1="457.8" x2="402.0" y2="473.8" stroke="#1d4e79" stroke-width="0.8"/><circle cx="402.0" cy="473.8" r="7.8" fill="#2e7d32" stroke="#1b5e20" stroke-width="1.2"/><text x="402.0" y="476.6" fill="#ffffff" font-weight="700" text-anchor="middle">50</text><circle cx="420.3" cy="473.8" r="6" fill="#ffffff" stroke="#1d4e79" stroke-width="0.8" opacity="0.25"/><text x="420.3" y="476.4" fill="#123c5e" text-anchor="middle" opacity="0.25" font-size="7">52</text></g><text x="30" y="612" font-size="24" font-weight="700" fill="#123c5e">Plas van der Ende · zone-indeling</text><text x="30" y="637" font-size="13" fill="#5b5442">19 zones (A t/m S) · loting gaat per zone · groene stekken doen mee</text><text x="1120" y="622" font-size="11.5" fill="#4a4536" text-anchor="end">A = 3 · B = 27 · C = 37 · D = 47 · E = 55 · F = 61 · G = 65 · H = 75 · I = 85 · J = 91</text><text x="1120" y="640" font-size="11.5" fill="#4a4536" text-anchor="end">K = 99 · L = 76+78 · M = 68 · N = 58 · O = 50 · P = 40+42 · Q = 34 · R = 24+26 · S = 6</text><text x="1120" y="663" font-size="10.5" font-style="italic" fill="#8a7f63" text-anchor="end">zonegrenzen (oranje) volgens de indeling van de organisatie</text></svg>